<svg width="16" height="16" viewBox="0 0 16 16" fill="none" xmlns="http://www.w3.org/2000/svg">
<circle cx="8" cy="8" r="8" fill="#212121"/>
<path d="M4.09437 6.42033C4.00859 6.72956 3.9645 7.04862 3.96326 7.36924C3.96326 7.39177 3.96326 7.41378 3.96326 7.4358C3.96598 7.8233 3.92197 8.20974 3.83216 8.58697C3.65124 8.52352 3.46507 8.39506 3.2873 8.1726C2.81952 7.5873 2.97501 6.64875 3.55186 6.42784C3.77002 6.34445 3.95251 6.36206 4.09515 6.41671C4.09477 6.41789 4.09451 6.4191 4.09437 6.42033Z" fill="#A16552"/>
<path d="M4.09437 6.42033C4.00859 6.72956 3.9645 7.04862 3.96326 7.36924C3.96326 7.39177 3.96326 7.41378 3.96326 7.4358C3.96598 7.8233 3.92197 8.20974 3.83216 8.58697C3.65124 8.52352 3.46507 8.39506 3.2873 8.1726C2.81952 7.5873 2.97501 6.64875 3.55186 6.42784C3.77002 6.34445 3.95251 6.36206 4.09515 6.41671C4.09477 6.41789 4.09451 6.4191 4.09437 6.42033Z" fill="#F5DCB4"/>
<path d="M12.7134 8.17283C12.5359 8.39477 12.3495 8.52323 12.1685 8.5872C12.0788 8.21004 12.0348 7.8237 12.0374 7.43628C12.0374 7.41427 12.0374 7.39226 12.0374 7.36973C12.0362 7.04782 11.9917 6.72751 11.905 6.4172C12.0477 6.36255 12.2302 6.34494 12.4483 6.42833C13.0252 6.64872 13.1809 7.58727 12.7134 8.17283Z" fill="#A16552"/>
<path d="M12.7134 8.17283C12.5359 8.39477 12.3495 8.52323 12.1685 8.5872C12.0788 8.21004 12.0348 7.8237 12.0374 7.43628C12.0374 7.41427 12.0374 7.39226 12.0374 7.36973C12.0362 7.04782 11.9917 6.72751 11.905 6.4172C12.0477 6.36255 12.2302 6.34494 12.4483 6.42833C13.0252 6.64872 13.1809 7.58727 12.7134 8.17283Z" fill="#F5DCB4"/>
<path d="M10.9159 8.59887C10.7437 8.86147 10.7015 9.18706 10.8011 9.48406C10.8779 9.7073 10.9466 9.96007 10.9466 10.1481C10.9461 11.5238 9.62744 12.6374 8.00019 12.6374C6.37294 12.6374 5.05351 11.5238 5.05351 10.1481C5.05351 9.96007 5.12221 9.70782 5.19904 9.48406C5.29873 9.18719 5.25658 8.86167 5.08445 8.59913C4.91865 8.34277 4.83024 8.04506 4.82959 7.74086C4.82959 6.82796 5.61621 6.08753 6.58768 6.08753C6.9013 6.08676 7.20977 6.16617 7.48312 6.31802C7.80371 6.49816 8.19667 6.49816 8.51726 6.31802C8.79051 6.16621 9.09892 6.08689 9.41243 6.08779C10.3826 6.08779 11.1708 6.82822 11.1708 7.74112C11.171 7.96918 11.1212 8.19458 11.0247 8.40178C10.9932 8.46992 10.9568 8.53578 10.9159 8.59887Z" fill="#A16552"/>
<path d="M10.9159 8.59887C10.7437 8.86147 10.7015 9.18706 10.8011 9.48406C10.8779 9.7073 10.9466 9.96007 10.9466 10.1481C10.9461 11.5238 9.62744 12.6374 8.00019 12.6374C6.37294 12.6374 5.05351 11.5238 5.05351 10.1481C5.05351 9.96007 5.12221 9.70782 5.19904 9.48406C5.29873 9.18719 5.25658 8.86167 5.08445 8.59913C4.91865 8.34277 4.83024 8.04506 4.82959 7.74086C4.82959 6.82796 5.61621 6.08753 6.58768 6.08753C6.9013 6.08676 7.20977 6.16617 7.48312 6.31802C7.80371 6.49816 8.19667 6.49816 8.51726 6.31802C8.79051 6.16621 9.09892 6.08689 9.41243 6.08779C10.3826 6.08779 11.1708 6.82822 11.1708 7.74112C11.171 7.96918 11.1212 8.19458 11.0247 8.40178C10.9932 8.46992 10.9568 8.53578 10.9159 8.59887Z" fill="#F5DCB4"/>
<path d="M6.49935 10.4557C6.45059 10.4556 6.40415 10.4763 6.37195 10.5124C6.33975 10.5486 6.32492 10.5967 6.33128 10.6445C6.43616 11.3813 7.14411 11.951 8.00022 11.951C8.85632 11.951 9.5648 11.3813 9.66916 10.6445C9.6755 10.5968 9.66071 10.5487 9.62857 10.5125C9.59643 10.4764 9.55006 10.4557 9.50135 10.4557H6.49935Z" fill="#4E3F3F"/>
<path d="M7.03076 11.6768C7.62399 12.0425 8.37628 12.0425 8.96951 11.6768C8.84785 11.2609 8.459 11.3567 7.99935 11.3567C7.5397 11.3567 7.15243 11.2609 7.03076 11.6768Z" fill="#E6646E"/>
<path fill-rule="evenodd" clip-rule="evenodd" d="M11.8278 6.16779C12.0224 6.0572 12.299 5.98676 12.6477 6.12039C13.3804 6.40087 13.5783 7.59399 12.9842 8.33753C12.7421 8.64028 12.4873 8.80602 12.2416 8.87983C12.2439 8.88911 12.246 8.8985 12.2481 8.90794L12.2481 8.90795L12.251 8.92075C12.2953 9.12076 12.3175 9.3249 12.3174 9.52962C12.3174 11.4461 10.3846 13 8.00041 13H7.95374C7.75708 12.9987 7.56064 12.9866 7.36535 12.9637C6.98916 12.9198 6.61919 12.8341 6.26251 12.7081C4.74328 12.1712 3.68292 10.9496 3.68292 9.52962C3.68284 9.32507 3.70508 9.12111 3.74926 8.92127C3.75215 8.90754 3.75529 8.89382 3.75844 8.88035C3.51406 8.80654 3.25815 8.64079 3.01587 8.3383C2.42197 7.59399 2.61968 6.40113 3.35254 6.12039C3.68633 5.99272 3.95431 6.05176 4.14729 6.15406L4.1722 6.16779C4.21994 6.02969 4.27472 5.89407 4.33634 5.76145C4.38127 5.66424 4.42995 5.56851 4.48239 5.47424C5.01598 4.51057 5.91168 3.71006 6.94215 3.37183C6.99039 3.27653 7.29901 2.71998 7.91913 2.67025C7.95085 2.66663 7.98337 2.66663 8.01667 2.66663L8.04525 2.78628L8.14253 3.20064C8.19234 3.20272 8.24111 3.20608 8.29041 3.21049L8.37064 3.21929L9.03717 2.82409L9.05815 3.37157C10.087 3.7098 10.9843 4.51005 11.5179 5.47424C11.5702 5.56868 11.6189 5.66441 11.664 5.76145C11.7256 5.89401 11.7803 6.02964 11.8278 6.16779ZM3.96322 7.3692C3.96446 7.04858 4.00854 6.72952 4.09432 6.42029C4.09447 6.41906 4.09473 6.41785 4.09511 6.41667C3.95247 6.36202 3.76998 6.34441 3.55182 6.4278C2.97497 6.64871 2.81948 7.58726 3.28725 8.17256C3.46503 8.39502 3.6512 8.52348 3.83212 8.58693C3.92193 8.2097 3.96594 7.82326 3.96322 7.43576V7.3692ZM11.0247 8.40175C10.9932 8.46989 10.9568 8.53575 10.9159 8.59884C10.7437 8.86145 10.7015 9.18703 10.801 9.48404C10.8779 9.70728 10.9466 9.96004 10.9466 10.1481C10.946 11.5238 9.6274 12.6374 8.00015 12.6374C6.3729 12.6374 5.05347 11.5238 5.05347 10.1481C5.05347 9.96004 5.12217 9.7078 5.199 9.48404C5.29869 9.18716 5.25654 8.86164 5.08442 8.5991C4.91861 8.34275 4.8302 8.04503 4.82955 7.74084C4.82955 6.82793 5.61617 6.0875 6.58764 6.0875C6.90126 6.08674 7.20973 6.16614 7.48308 6.318C7.80367 6.49814 8.19663 6.49814 8.51722 6.318C8.79047 6.16619 9.09888 6.08687 9.41239 6.08776C10.3826 6.08776 11.1707 6.82819 11.1707 7.7411C11.171 7.96916 11.1212 8.19456 11.0247 8.40175ZM12.1684 8.58718C12.3494 8.52322 12.5358 8.39476 12.7133 8.17282C13.1808 7.58726 13.0251 6.64871 12.4482 6.42832C12.2301 6.34493 12.0476 6.36254 11.9049 6.41719C11.9916 6.72749 12.0361 7.04781 12.0373 7.36972V7.43627C12.0347 7.82369 12.0787 8.21003 12.1684 8.58718Z" fill="#A16552"/>
<path d="M7.33661 9.40077C7.26559 9.36873 7.23434 9.28492 7.26704 9.2142C7.29932 9.14441 7.38179 9.11366 7.45188 9.14528L7.78118 9.29385C7.8522 9.32589 7.88345 9.40971 7.85075 9.48042C7.81847 9.55021 7.736 9.58096 7.66591 9.54934L7.33661 9.40077Z" fill="#4E3F3F"/>
<path d="M8.33413 9.54981C8.26405 9.58143 8.18157 9.55068 8.1493 9.48089C8.11659 9.41018 8.14785 9.32636 8.21887 9.29432L8.54817 9.14575C8.61826 9.11413 8.70073 9.14488 8.733 9.21467C8.76571 9.28539 8.73446 9.3692 8.66344 9.40124L8.33413 9.54981Z" fill="#4E3F3F"/>
<path d="M6.48619 8.40129C6.20747 8.40129 5.98145 8.18997 5.98145 7.92891V7.77145C5.98145 7.51066 6.20747 7.29907 6.48619 7.29907C6.76492 7.29907 6.99068 7.51066 6.99068 7.77145V7.92891C6.99068 8.18997 6.76492 8.40129 6.48619 8.40129Z" fill="#4E3F3F"/>
<path d="M6.48608 7.29907V7.85018C6.49223 7.98337 6.60335 8.08822 6.73833 8.08822C6.87331 8.08822 6.98442 7.98337 6.99057 7.85018V7.77249C6.99057 7.50962 6.76481 7.29907 6.48608 7.29907Z" fill="#5D5360"/>
<ellipse cx="6.48621" cy="7.61388" rx="0.168336" ry="0.15746" fill="white"/>
<path d="M9.51401 8.40129C9.23528 8.40129 9.00952 8.18997 9.00952 7.92891V7.77145C9.00952 7.51066 9.23528 7.29907 9.51401 7.29907C9.79273 7.29907 10.0188 7.51066 10.0188 7.77145V7.92891C10.0188 8.18997 9.79221 8.40129 9.51401 8.40129Z" fill="#4E3F3F"/>
<path d="M9.51416 7.29907V7.85018C9.52164 7.98245 9.63241 8.08592 9.76653 8.08592C9.90066 8.08592 10.0114 7.98245 10.0189 7.85018V7.77249C10.0189 7.50962 9.79236 7.29907 9.51416 7.29907Z" fill="#5D5360"/>
<ellipse cx="9.51404" cy="7.61388" rx="0.168336" ry="0.15746" fill="white"/>
</svg>
