<svg width="16" height="16" viewBox="0 0 16 16" fill="none" xmlns="http://www.w3.org/2000/svg">
<circle cx="8" cy="8" r="8" fill="#A5A8A9"/>
<path d="M8.12963 8.26323L7.29751 11.0712H11.7484C11.8202 11.0713 11.8877 11.1052 11.9307 11.1627C11.9737 11.2201 11.9871 11.2945 11.9671 11.3634L11.58 12.6967C11.5421 12.8276 11.4221 12.9175 11.2859 12.9173H4.48764L5.63713 9.03536L4.36572 9.42239L4.64632 8.5148L5.91967 8.12776L7.5336 2.67445C7.57006 2.54312 7.68952 2.45215 7.82581 2.45191H9.54811C9.61976 2.45165 9.68738 2.48504 9.73073 2.54208C9.77409 2.59913 9.78815 2.67322 9.76872 2.74218L8.4141 7.3537L9.68551 6.96666L9.41265 7.88974L8.12963 8.26323Z" fill="white"/>
</svg>
