<svg width="16" height="16" viewBox="0 0 16 16" fill="none" xmlns="http://www.w3.org/2000/svg">
<path d="M15.7605 9.9353C14.6919 14.221 10.3507 16.8292 6.06401 15.7605C1.77905 14.692 -0.829473 10.351 0.239641 6.06559C1.30775 1.77938 5.64897 -0.829093 9.93442 0.239396C14.2209 1.30789 16.8292 5.64934 15.7605 9.9353Z" fill="#F7931A"/>
<path fill-rule="evenodd" clip-rule="evenodd" d="M11.6458 6.95489C11.8123 5.83407 10.9651 5.23155 9.80668 4.82961L10.1825 3.31133L9.26497 3.081L8.89912 4.55927C8.65793 4.49873 8.4102 4.44161 8.16404 4.38502L8.53249 2.89701L7.61553 2.66669L7.23949 4.18444C7.03984 4.13864 6.84386 4.09337 6.65362 4.04572L6.65466 4.04098L5.38936 3.72275L5.14529 4.70984C5.14529 4.70984 5.82602 4.86698 5.81165 4.87672C6.18324 4.97017 6.2504 5.21786 6.23917 5.41423L5.81113 7.14388C5.83674 7.15046 5.86992 7.15994 5.90651 7.17468L5.87542 7.16686C5.85414 7.16148 5.83208 7.15591 5.80956 7.15046L5.20957 9.57345C5.1641 9.68716 5.04886 9.85773 4.78911 9.79298C4.79826 9.8064 4.12223 9.6253 4.12223 9.6253L3.66675 10.6832L4.86071 10.983C4.99401 11.0167 5.1257 11.0513 5.25602 11.0855L5.25612 11.0855C5.34293 11.1083 5.42913 11.131 5.51479 11.1531L5.1351 12.6887L6.05154 12.919L6.42758 11.3997C6.67792 11.4681 6.92094 11.5313 7.15874 11.5908L6.78401 13.103L7.7015 13.3334L8.0812 11.8006C9.64571 12.0988 10.8222 11.9785 11.3174 10.5532C11.7164 9.40551 11.2975 8.7435 10.4743 8.31181C11.0738 8.17256 11.5254 7.77536 11.6458 6.95489ZM9.54954 9.9159C9.28942 10.9688 7.65324 10.5335 6.90461 10.3343C6.83725 10.3164 6.77708 10.3004 6.72574 10.2876L7.22956 8.25311C7.29207 8.26883 7.36845 8.28609 7.45497 8.30565C8.22927 8.48066 9.81609 8.83932 9.54954 9.9159ZM7.61055 7.36151C8.23471 7.5293 9.59618 7.89528 9.83334 6.9383C10.0755 5.95945 8.75227 5.66438 8.10602 5.52027C8.03333 5.50406 7.9692 5.48976 7.91683 5.47661L7.46004 7.32182C7.50319 7.33265 7.55382 7.34627 7.61055 7.36151Z" fill="white"/>
</svg>
