<svg width="16" height="16" viewBox="0 0 16 16" fill="none" xmlns="http://www.w3.org/2000/svg">
<circle cx="8" cy="8" r="8" fill="#22A079"/>
<path fill-rule="evenodd" clip-rule="evenodd" d="M9.08286 5.36065V6.69015L9.08428 6.69159C11.5099 6.80526 13.3334 7.2959 13.3334 7.88151C13.3334 8.46856 11.5099 8.95777 9.08428 9.07144V13.3333H6.92295V9.07144C4.49447 8.95633 2.66675 8.46713 2.66675 7.88008C2.66675 7.29303 4.49306 6.80382 6.92295 6.69015V5.36065H3.93329V3.33331H12.0725V5.36065H9.08286ZM9.08286 8.70597V8.70741V8.70885C11.2244 8.61101 12.8231 8.23115 12.8231 7.77648C12.8231 7.3218 11.2258 6.94195 9.08286 6.8441V8.329C9.02067 8.33475 8.68707 8.36353 8.01987 8.36353C7.46434 8.36353 7.06148 8.33907 6.92154 8.329V6.84267C4.77577 6.93907 3.1728 7.32036 3.1728 7.77504C3.1728 8.23115 4.77435 8.61101 6.92154 8.70741V8.70597C7.06007 8.71317 7.45162 8.729 8.00998 8.729C8.70827 8.729 9.02208 8.71029 9.08286 8.70597Z" fill="white"/>
</svg>
