<svg width="16" height="16" viewBox="0 0 16 16" fill="none" xmlns="http://www.w3.org/2000/svg">
<circle cx="8" cy="8" r="8" fill="#002D72"/>
<path fill-rule="evenodd" clip-rule="evenodd" d="M8.33339 2.66663L3.66675 5.33314V10.6664L8.33339 13.3333L13 10.6664V5.33314L8.33339 2.66663ZM8.33339 2.99996L4.00008 5.66648V10.3331L8.33339 13L12.6667 10.3331V5.66648L8.33339 2.99996ZM10.0721 4.99996H6.58262L6.17778 6.76991H10.4928L10.0721 4.99996ZM7.20748 7.03728L7.58804 8.02581L7.47188 9.13418H8.33328L9.20271 9.13015L9.09454 8.02581L9.46707 7.03728H7.20748ZM8.698 9.95149V10.3022L9.45105 10.992H10.0799L11.6667 8.24122L10.5008 7.36822L9.47913 8.0298V9.20603L8.698 9.95149ZM6.1697 7.37615L5.00008 8.24122L6.59446 11H7.23161L7.98458 10.3022V9.95149L7.20345 9.20603V8.0298L6.1697 7.37615Z" fill="white"/>
</svg>
