<svg width="16" height="16" viewBox="0 0 16 16" fill="none" xmlns="http://www.w3.org/2000/svg">
<circle cx="8" cy="8" r="8" fill="#0657F9"/>
<path fill-rule="evenodd" clip-rule="evenodd" d="M7.17996 7.7993V6.9884C6.56389 6.68194 6.13971 6.04085 6.13971 5.29965C6.13971 4.26119 6.97263 3.419 7.99995 3.419C9.15342 3.419 9.98635 4.26119 9.98635 5.29965C9.98635 5.56144 9.9331 5.81076 9.80546 6.10697L9.47743 5.02869L8.81988 5.23653L9.40299 7.48057L11.6666 6.63855L11.3914 5.98224L10.5472 6.27439C10.7 5.93941 10.73 5.69309 10.73 5.29965C10.73 3.84551 9.56425 2.66669 7.99995 2.66669C6.56181 2.66669 5.39597 3.84551 5.39597 5.29965C5.39597 6.46404 6.14372 7.45189 7.17996 7.7993ZM7.61575 4.60714H8.3839V11.3927H7.61575V4.60714ZM8.81988 9.01165V8.20068C9.85606 8.54821 10.6038 9.53595 10.6038 10.7004C10.6038 12.1545 9.43798 13.3334 7.99989 13.3334C6.43559 13.3334 5.26975 12.1545 5.26975 10.7004C5.26975 10.3069 5.29978 10.0606 5.45256 9.72568L4.60836 10.0178L4.33325 9.36162L6.59685 8.51947L7.1799 10.7635L6.52238 10.9713L6.19436 9.89306C6.06669 10.1893 6.01348 10.4386 6.01348 10.7004C6.01348 11.7388 6.84642 12.5811 7.99989 12.5811C9.02721 12.5811 9.86008 11.7388 9.86008 10.7004C9.86008 9.95918 9.43594 9.31822 8.81988 9.01165Z" fill="white"/>
</svg>
