<svg width="16" height="16" viewBox="0 0 16 16" fill="none" xmlns="http://www.w3.org/2000/svg">
<path fill-rule="evenodd" clip-rule="evenodd" d="M16 8C16 12.4183 12.4183 16 8 16C3.58172 16 0 12.4183 0 8C0 3.58172 3.58172 0 8 0C12.4183 0 16 3.58172 16 8Z" fill="#E84142"/>
<path fill-rule="evenodd" clip-rule="evenodd" d="M5.73291 11.1834H4.18034C3.85411 11.1834 3.69295 11.1834 3.59467 11.1206C3.48856 11.0518 3.42369 10.9378 3.41583 10.812C3.40994 10.6961 3.49051 10.5546 3.65167 10.2715L7.48517 3.51448C7.64829 3.22754 7.73083 3.08408 7.83499 3.03101C7.94702 2.97404 8.08066 2.97404 8.19268 3.03101C8.29684 3.08408 8.37939 3.22754 8.54251 3.51448L9.33059 4.89018L9.33462 4.8972C9.51079 5.20504 9.60014 5.36113 9.63914 5.52496C9.68236 5.70381 9.68236 5.89247 9.63914 6.07131C9.59984 6.23641 9.51138 6.39364 9.33254 6.70612L7.31891 10.2657L7.3137 10.2748C7.13634 10.5851 7.04647 10.7424 6.92191 10.8611C6.78631 10.9909 6.6232 11.0852 6.44435 11.1382C6.28124 11.1834 6.09846 11.1834 5.73291 11.1834Z" fill="white"/>
<path fill-rule="evenodd" clip-rule="evenodd" d="M9.65348 11.1836H11.8782C12.2064 11.1836 12.3715 11.1836 12.4698 11.1188C12.5759 11.05 12.6427 10.934 12.6486 10.8083C12.6543 10.6961 12.5754 10.5601 12.421 10.2936C12.4157 10.2845 12.4103 10.2752 12.4049 10.2658L11.2906 8.35951L11.2779 8.33807C11.1213 8.07324 11.0422 7.93953 10.9408 7.88784C10.8287 7.83084 10.6971 7.83084 10.585 7.88784C10.4828 7.94089 10.4003 8.08044 10.2372 8.36146L9.12679 10.2678L9.12298 10.2744C8.96044 10.5549 8.8792 10.6952 8.88506 10.8102C8.89293 10.936 8.95777 11.052 9.06391 11.1207C9.1602 11.1836 9.32527 11.1836 9.65348 11.1836Z" fill="white"/>
</svg>
