<svg width="16" height="16" viewBox="0 0 16 16" fill="none" xmlns="http://www.w3.org/2000/svg">
<circle cx="8" cy="8" r="8" fill="url(#paint0_linear_859_10060)"/>
<path fill-rule="evenodd" clip-rule="evenodd" d="M2.66651 7.99996C2.66471 6.58513 3.22694 5.22794 4.22873 4.22885C6.31095 6.31107 6.31094 9.6884 4.22872 11.7711C6.31139 9.6884 9.68827 9.6884 11.7709 11.7711C9.68827 9.6884 9.68827 6.31151 11.7709 4.22884C9.68872 6.31106 6.3114 6.31107 4.22873 4.22885C5.22782 3.22706 6.58501 2.66483 7.99984 2.66663C10.9452 2.66663 13.3332 5.05463 13.3332 7.99996C13.3332 10.9453 10.9452 13.3333 7.99984 13.3333C5.05451 13.3333 2.66651 10.9453 2.66651 7.99996Z" fill="white"/>
<defs>
<linearGradient id="paint0_linear_859_10060" x1="24" y1="8" x2="8" y2="-8" gradientUnits="userSpaceOnUse">
<stop stop-color="#BB2DC7"/>
<stop offset="1" stop-color="#8505B1"/>
</linearGradient>
</defs>
</svg>
