<svg width="16" height="16" viewBox="0 0 16 16" fill="none" xmlns="http://www.w3.org/2000/svg">
<circle cx="8" cy="8" r="8" fill="#7950DD"/>
<path d="M10.7157 6.18461C10.5189 6.06622 10.2631 6.06622 10.0466 6.18461L8.51151 7.09228L7.46846 7.68425L5.93341 8.59194C5.73662 8.71033 5.48077 8.71033 5.26429 8.59194L4.04412 7.88159C3.84732 7.7632 3.70955 7.54614 3.70955 7.30934V5.90836C3.70955 5.67158 3.82763 5.45452 4.04412 5.33613L5.24461 4.6455C5.44141 4.52711 5.69724 4.52711 5.91374 4.6455L7.11423 5.33613C7.31102 5.45452 7.44878 5.67158 7.44878 5.90836V6.81604L8.49183 6.20435V5.29667C8.49183 5.05988 8.37377 4.84283 8.15728 4.72443L5.93341 3.42211C5.73662 3.30371 5.48077 3.30371 5.26429 3.42211L3.00107 4.72443C2.78459 4.84283 2.6665 5.05988 2.6665 5.29667V7.92105C2.6665 8.15783 2.78459 8.37488 3.00107 8.49327L5.26429 9.79559C5.46109 9.91401 5.71695 9.91401 5.93341 9.79559L7.46846 8.90764L8.51151 8.29596L10.0466 7.40801C10.2434 7.28962 10.4992 7.28962 10.7157 7.40801L11.9162 8.09865C12.113 8.21703 12.2508 8.43409 12.2508 8.67087V10.0719C12.2508 10.3086 12.1327 10.5257 11.9162 10.6441L10.7157 11.3545C10.5189 11.4728 10.2631 11.4728 10.0466 11.3545L8.84609 10.6638C8.64927 10.5454 8.51151 10.3284 8.51151 10.0916V9.18391L7.46846 9.79559V10.7033C7.46846 10.9401 7.58655 11.1571 7.80304 11.2755L10.0663 12.5779C10.2631 12.6962 10.5189 12.6962 10.7354 12.5779L12.9986 11.2755C13.1954 11.1571 13.3332 10.9401 13.3332 10.7033V8.0789C13.3332 7.84213 13.2151 7.62507 12.9986 7.50668L10.7157 6.18461Z" fill="white"/>
</svg>
