<svg width="16" height="16" viewBox="0 0 16 16" fill="none" xmlns="http://www.w3.org/2000/svg">
<circle cx="8" cy="8" r="8" fill="#2775CA"/>
<path d="M6.69638 12.7531C6.69638 12.927 6.57786 12.9849 6.40008 12.9849C4.20749 12.2894 2.66675 10.3186 2.66675 8C2.66675 5.68143 4.20749 3.71065 6.40008 3.01508C6.57786 2.95711 6.69638 3.07304 6.69638 3.24694V3.65268C6.69638 3.76861 6.63712 3.88454 6.5186 3.94251C4.80008 4.58011 3.6149 6.14515 3.6149 8C3.6149 9.85485 4.85934 11.4779 6.5186 12.0575C6.63712 12.1155 6.69638 12.2314 6.69638 12.3473V12.7531Z" fill="white"/>
<path d="M8.47417 11.304C8.47417 11.4199 8.35566 11.5358 8.23714 11.5358H7.76306C7.64454 11.5358 7.52603 11.4199 7.52603 11.304V10.6084C6.57788 10.4925 6.1038 9.97079 5.92603 9.21726C5.92603 9.10133 5.98528 8.9854 6.1038 8.9854H6.63714C6.75566 8.9854 6.81491 9.04336 6.87417 9.15929C6.99269 9.56504 7.22973 9.91283 8.0001 9.91283C8.59269 9.91283 9.00751 9.62301 9.00751 9.15929C9.00751 8.69558 8.77047 8.52169 7.94084 8.40576C6.6964 8.23187 6.1038 7.88408 6.1038 6.89869C6.1038 6.14515 6.6964 5.56551 7.52603 5.44958V4.75401C7.52603 4.63808 7.64454 4.52216 7.76306 4.52216H8.23714C8.35566 4.52216 8.47417 4.63808 8.47417 4.75401V5.44958C9.18529 5.56551 9.65936 5.97126 9.77788 6.60887C9.77788 6.7248 9.71862 6.84072 9.6001 6.84072H9.12603C9.00751 6.84072 8.94825 6.78276 8.88899 6.66683C8.77047 6.26108 8.47417 6.08719 7.94084 6.08719C7.34825 6.08719 7.05195 6.37701 7.05195 6.78276C7.05195 7.18851 7.22973 7.42037 8.11862 7.53629C9.36306 7.71019 9.95566 8.05797 9.95566 9.04336C9.95566 9.7969 9.36306 10.4345 8.47417 10.6084V11.304Z" fill="white"/>
<path d="M9.60001 12.9849C9.42223 13.0429 9.30371 12.927 9.30371 12.7531V12.3473C9.30371 12.2314 9.36297 12.1155 9.48149 12.0575C11.2 11.4199 12.3852 9.85485 12.3852 8C12.3852 6.14514 11.1407 4.52214 9.48149 3.9425C9.36297 3.88454 9.30371 3.76861 9.30371 3.65268V3.24693C9.30371 3.07304 9.42223 3.01508 9.60001 3.01508C11.7333 3.71065 13.3333 5.68143 13.3333 8C13.3333 10.3186 11.7926 12.2893 9.60001 12.9849Z" fill="white"/>
</svg>
