<svg width="16" height="16" viewBox="0 0 16 16" fill="none" xmlns="http://www.w3.org/2000/svg">
<circle cx="8" cy="8" r="8" fill="#1969FF"/>
<path fill-rule="evenodd" clip-rule="evenodd" d="M7.52407 2.76883C7.79102 2.6326 8.19721 2.6326 8.46416 2.76883L11.1882 4.15901C11.3489 4.24106 11.4372 4.36333 11.453 4.48954H11.4556V11.4773C11.4521 11.615 11.363 11.7517 11.1882 11.841L8.46416 13.2311C8.19721 13.3674 7.79102 13.3674 7.52407 13.2311L4.80009 11.841C4.626 11.7521 4.54245 11.6144 4.53832 11.4773C4.53791 11.4638 4.53786 11.4526 4.53825 11.4432L4.53823 4.53443C4.53796 4.52686 4.53793 4.5193 4.53816 4.51178L4.53832 4.48954L4.53954 4.48954C4.55164 4.36194 4.63593 4.24279 4.80009 4.15901L7.52407 2.76883ZM11.0268 8.38798L8.46416 9.69583C8.19721 9.83207 7.79102 9.83207 7.52407 9.69583L4.96702 8.3909V11.4635L7.52407 12.7616C7.66846 12.8361 7.81833 12.9088 7.96486 12.9181L7.99412 12.919C8.13758 12.9194 8.27712 12.8533 8.41814 12.7865L8.41815 12.7865L8.44539 12.7736L11.0268 11.4523V8.38798ZM4.19141 11.8931C4.12747 11.7691 4.09526 11.5931 4.09526 11.3254H3.6665L3.66655 11.344C3.6696 11.9554 3.82392 12.2492 4.23772 12.5188C4.27643 12.5441 4.31793 12.5696 4.368 12.5996L4.39711 12.6168L4.57028 12.7179L4.79219 12.3634L4.63747 12.2731L4.58708 12.2433C4.54436 12.2178 4.50926 12.1961 4.47739 12.1753L4.46911 12.1699C4.32392 12.0743 4.2444 11.9958 4.19141 11.8931ZM7.77968 6.51505C7.75985 6.52163 7.74126 6.52924 7.72431 6.53789L5.00033 7.92807L4.99215 7.9324L4.98984 7.9337L4.99412 7.93605L5.00033 7.93931L7.72431 9.32949C7.74126 9.33814 7.75985 9.34575 7.77968 9.35234V6.51505ZM8.20857 9.35234V6.51505C8.2284 6.52163 8.24698 6.52924 8.26392 6.53789L10.9879 7.92807L10.9941 7.93133L10.9984 7.9337L10.9961 7.93499L10.9879 7.93931L8.26392 9.32949C8.24698 9.33814 8.2284 9.34575 8.20857 9.35234ZM11.0268 4.98523L8.58325 6.23232L11.0268 7.4794V4.98523ZM7.40493 6.23232L4.96702 7.47648V4.98815L7.40493 6.23232ZM8.26392 3.13517C8.12227 3.06287 7.86598 3.06287 7.72431 3.13517L5.00033 4.52535L4.99215 4.52968L4.98984 4.53097L4.99412 4.53334L5.00033 4.53659L7.72431 5.92677C7.86598 5.99907 8.12227 5.99907 8.26392 5.92677L10.9879 4.53659L10.9961 4.53226L10.9984 4.53097L10.9941 4.5286L10.9879 4.52535L8.26392 3.13517ZM11.6026 3.38868L11.4294 3.28762L11.2075 3.6421L11.3622 3.73232L11.4126 3.76214C11.4553 3.7877 11.4904 3.80944 11.5223 3.8302L11.5306 3.83562C11.6758 3.93117 11.7553 4.0097 11.8083 4.11245C11.8722 4.23642 11.9044 4.41239 11.9044 4.68012H12.3332L12.3331 4.66149C12.3301 4.05013 12.1758 3.75624 11.762 3.48668C11.7232 3.46146 11.6817 3.43581 11.6317 3.40594L11.6026 3.38868Z" fill="white"/>
</svg>
