<svg width="16" height="16" viewBox="0 0 16 16" fill="none" xmlns="http://www.w3.org/2000/svg">
<circle cx="8" cy="8" r="8" fill="#0033AD"/>
<path d="M5.58936 7.96235C5.5666 8.36467 5.86938 8.70964 6.26589 8.73315H6.30513C6.69628 8.73271 7.01515 8.41475 7.02234 8.01796C7.02954 7.62117 6.72243 7.29151 6.33156 7.27647C5.94069 7.26143 5.60985 7.56654 5.5874 7.96275L5.58936 7.96235Z" fill="white"/>
<path d="M2.91163 7.77766C2.78379 7.7704 2.67434 7.86962 2.66712 7.99932C2.6599 8.12902 2.75765 8.24012 2.88548 8.24751C3.01331 8.2549 3.12286 8.15579 3.13021 8.0261C3.13385 7.96371 3.11283 7.90242 3.07181 7.85579C3.03079 7.80916 2.97314 7.78104 2.91163 7.77766Z" fill="white"/>
<path d="M5.54405 3.73369C5.65789 3.67438 5.70301 3.53283 5.64497 3.41712C5.58693 3.3014 5.44759 3.2551 5.33332 3.31356C5.21906 3.37203 5.17292 3.51323 5.23012 3.62938C5.25794 3.68562 5.30673 3.72827 5.36568 3.74785C5.42462 3.76744 5.48883 3.76234 5.54405 3.73369Z" fill="white"/>
<path d="M6.27273 5.02287C6.44955 4.93237 6.52062 4.71358 6.43146 4.53415C6.3423 4.35472 6.12668 4.28257 5.94981 4.37298C5.77293 4.46339 5.70177 4.68215 5.79084 4.86162C5.83364 4.94787 5.90847 5.01331 5.99885 5.04356C6.08923 5.0738 6.18775 5.06636 6.27273 5.02287Z" fill="white"/>
<path d="M3.82042 5.90956C3.92031 5.97621 4.04994 5.97522 4.14883 5.90705C4.24772 5.83889 4.29638 5.71699 4.27212 5.59821C4.24785 5.47944 4.15544 5.38721 4.03799 5.36455C3.92054 5.34188 3.80121 5.39325 3.73566 5.49469C3.64627 5.63303 3.6842 5.81867 3.82042 5.90956Z" fill="white"/>
<path d="M4.2573 7.64506C4.05958 7.63374 3.89023 7.78715 3.879 7.98775C3.86778 8.18836 4.01892 8.36023 4.21664 8.37169C4.41436 8.38315 4.58381 8.22986 4.59518 8.02927C4.60633 7.82855 4.45512 7.6566 4.2573 7.64506Z" fill="white"/>
<path d="M3.85978 10.0916C3.71416 10.1663 3.65575 10.3466 3.7293 10.4943C3.80285 10.6421 3.98053 10.7014 4.12619 10.6268C4.27185 10.5523 4.33037 10.372 4.25691 10.2242C4.2216 10.1532 4.15991 10.0993 4.08542 10.0744C4.01094 10.0495 3.92976 10.0557 3.85978 10.0916Z" fill="white"/>
<path d="M5.25394 6.89296C5.44897 7.02264 5.71069 6.96737 5.83852 6.76951C5.96635 6.57164 5.9119 6.3061 5.71689 6.17638C5.52188 6.04667 5.26016 6.10189 5.13229 6.29973C5.07076 6.39473 5.04901 6.51066 5.07183 6.62195C5.09466 6.73324 5.16017 6.83074 5.25394 6.89296Z" fill="white"/>
<path d="M9.67721 4.99424C9.84326 5.10413 10.0657 5.05668 10.174 4.88824C10.2824 4.71979 10.2357 4.49411 10.0697 4.38411C9.90375 4.27411 9.6813 4.32142 9.57282 4.48979C9.52058 4.57068 9.50223 4.66935 9.52181 4.764C9.5414 4.85864 9.59731 4.94149 9.67721 4.99424Z" fill="white"/>
<path d="M10.4136 3.70902C10.4922 3.7613 10.5941 3.76037 10.6718 3.70667C10.7494 3.65296 10.7875 3.55707 10.7683 3.46372C10.7491 3.37037 10.6764 3.29797 10.584 3.28028C10.4917 3.2626 10.3979 3.30312 10.3465 3.38294C10.2763 3.4918 10.3064 3.63772 10.4136 3.70902Z" fill="white"/>
<path d="M9.73391 7.2688C9.33785 7.24571 8.99833 7.55275 8.97557 7.9546C8.95281 8.35645 9.25544 8.70092 9.65151 8.72401C9.66524 8.72401 9.67937 8.72401 9.6931 8.72401C9.97614 8.72387 10.2327 8.55507 10.3483 8.29294C10.4638 8.03081 10.4169 7.72425 10.2284 7.51007C10.1021 7.36563 9.92395 7.2787 9.73391 7.2688Z" fill="white"/>
<path d="M6.50846 6.84241C6.63006 7.08889 6.87878 7.24422 7.15045 7.24334C7.40014 7.2434 7.63195 7.11193 7.76271 6.89612C7.89347 6.68031 7.90443 6.4111 7.79166 6.18508C7.66922 5.93974 7.4207 5.78562 7.14967 5.78693C6.90077 5.78736 6.66983 5.91845 6.53923 6.13342C6.40863 6.34839 6.39699 6.61663 6.50846 6.84241Z" fill="white"/>
<path d="M12.1396 5.90877C12.2853 5.83419 12.3438 5.65398 12.2704 5.50618C12.1969 5.35837 12.0193 5.2989 11.8736 5.37333C11.7279 5.44775 11.6692 5.62791 11.7425 5.77579C11.816 5.92369 11.9938 5.9832 12.1396 5.90877Z" fill="white"/>
<path d="M10.3186 6.14089C10.1103 6.24732 10.0265 6.5049 10.1314 6.71621C10.2363 6.92752 10.4902 7.01255 10.6984 6.90612C10.9067 6.7997 10.9905 6.54212 10.8856 6.33081C10.8353 6.22926 10.7473 6.15217 10.6409 6.11654C10.5346 6.08092 10.4186 6.08968 10.3186 6.14089Z" fill="white"/>
<path d="M7.97254 3.59913C8.09189 3.60603 8.20357 3.53929 8.2555 3.43005C8.30742 3.32081 8.28937 3.19059 8.20975 3.10013C8.13014 3.00967 8.00464 2.97678 7.89181 3.01682C7.77897 3.05685 7.70102 3.16192 7.69432 3.283C7.68518 3.44823 7.80971 3.58972 7.97254 3.59913Z" fill="white"/>
<path d="M7.9694 5.4859C8.20215 5.49914 8.40145 5.3185 8.4146 5.08235C8.42775 4.8462 8.24979 4.64392 8.01705 4.63047C7.7843 4.61701 7.58485 4.79748 7.57149 5.03361C7.55833 5.26997 7.73644 5.47243 7.9694 5.4859Z" fill="white"/>
<path d="M5.68167 9.85911C5.83418 9.7811 5.92535 9.61755 5.91266 9.44474C5.89996 9.27193 5.78591 9.1239 5.62369 9.06968C5.46147 9.01547 5.28303 9.06574 5.17159 9.19707C5.06016 9.32839 5.03767 9.51489 5.11463 9.6696C5.21966 9.88076 5.4735 9.96559 5.68167 9.85911Z" fill="white"/>
<path d="M8.24223 6.111C8.06207 6.38996 8.09159 6.75741 8.31389 7.00309C8.5362 7.24876 8.89454 7.30993 9.18384 7.15158C9.47314 6.99324 9.61954 6.65581 9.53926 6.3324C9.45898 6.00899 9.17252 5.78217 8.84381 5.78174C8.60139 5.78157 8.37522 5.90536 8.24223 6.111Z" fill="white"/>
<path d="M9.49098 9.15802C9.33176 8.83767 8.96638 8.68261 8.62977 8.79253C8.29315 8.90245 8.08551 9.24463 8.14034 9.59907C8.19517 9.95351 8.49616 10.2147 8.84977 10.2147C8.96218 10.2139 9.07287 10.1866 9.17313 10.1351C9.52617 9.95375 9.66827 9.51694 9.49098 9.15802Z" fill="white"/>
<path d="M10.7458 9.10706C10.5509 8.97722 10.2891 9.0323 10.1611 9.23009C10.0331 9.42788 10.0874 9.69348 10.2824 9.82332C10.4773 9.95316 10.7391 9.89808 10.8671 9.7003C10.9946 9.50242 10.9404 9.23717 10.7458 9.10706Z" fill="white"/>
<path d="M12.1208 8.01253C12.132 7.81192 11.9808 7.6401 11.7831 7.62871C11.5853 7.61732 11.4159 7.77067 11.4046 7.97127C11.3934 8.17187 11.5444 8.3438 11.7421 8.35533C11.94 8.36665 12.1095 8.21323 12.1208 8.01253Z" fill="white"/>
<path d="M13.1146 7.75332C13.0208 7.74784 12.9329 7.80024 12.892 7.88607C12.8512 7.97191 12.8653 8.07428 12.9278 8.14545C12.9903 8.21662 13.0889 8.24258 13.1776 8.21121C13.2664 8.17985 13.3277 8.09734 13.3331 8.00216C13.3403 7.87229 13.2425 7.76102 13.1146 7.75332Z" fill="white"/>
<path d="M12.1789 10.0904C12.0424 9.99972 11.8593 10.0384 11.7698 10.1769C11.6804 10.3153 11.7185 10.5011 11.8549 10.5919C11.9914 10.6827 12.1745 10.6441 12.264 10.5057C12.307 10.4392 12.3222 10.358 12.3063 10.2802C12.2903 10.2023 12.2445 10.134 12.1789 10.0904Z" fill="white"/>
<path d="M5.58635 12.291C5.47909 12.2196 5.33509 12.2499 5.26469 12.3587C5.19429 12.4675 5.22415 12.6136 5.33138 12.6851C5.43861 12.7565 5.58262 12.7262 5.65306 12.6175C5.6869 12.5652 5.69888 12.5014 5.68637 12.4402C5.67386 12.379 5.63788 12.3253 5.58635 12.291Z" fill="white"/>
<path d="M10.4554 12.2663C10.3715 12.3092 10.3213 12.3992 10.3283 12.4943C10.3353 12.5894 10.398 12.6708 10.4872 12.7007C10.5765 12.7305 10.6747 12.7029 10.736 12.6306C10.7973 12.5584 10.8097 12.4558 10.7674 12.3706C10.7397 12.3148 10.6912 12.2724 10.6327 12.2528C10.5742 12.2332 10.5104 12.2381 10.4554 12.2663Z" fill="white"/>
<path d="M7.75708 9.88779C7.93726 9.60881 7.90771 9.2413 7.68535 8.99563C7.46298 8.74996 7.10459 8.68886 6.8153 8.84731C6.52601 9.00575 6.3797 9.34327 6.46012 9.66668C6.54054 9.9901 6.82714 10.2168 7.15589 10.2171C7.39837 10.2179 7.62472 10.0939 7.75708 9.88779Z" fill="white"/>
<path d="M6.32215 11.0062C6.15643 10.8962 5.93419 10.9433 5.82572 11.1114C5.71724 11.2795 5.76359 11.505 5.92925 11.6151C6.0949 11.7252 6.31717 11.6783 6.42575 11.5102C6.53421 11.342 6.48784 11.1164 6.32215 11.0062Z" fill="white"/>
<path d="M7.9966 12.4009C7.8337 12.3915 7.69411 12.5178 7.68481 12.6831C7.67552 12.8484 7.80002 12.99 7.96293 12.9995C8.12583 13.009 8.26546 12.8827 8.27483 12.7174C8.27933 12.638 8.25254 12.56 8.20035 12.5007C8.14817 12.4413 8.07488 12.4054 7.9966 12.4009Z" fill="white"/>
<path d="M7.99962 10.5145C7.829 10.5039 7.66896 10.5988 7.59424 10.7548C7.51952 10.9108 7.54486 11.0971 7.65843 11.2267C7.772 11.3563 7.95139 11.4037 8.11282 11.3467C8.27426 11.2896 8.38588 11.1395 8.39557 10.9664C8.40897 10.7307 8.23183 10.5286 7.99962 10.5145Z" fill="white"/>
<path d="M9.72663 10.9771C9.59705 11.0438 9.51987 11.1832 9.53111 11.3302C9.54235 11.4772 9.6398 11.6028 9.77797 11.6484C9.91614 11.6941 10.0678 11.6507 10.1622 11.5386C10.2565 11.4265 10.275 11.2677 10.2089 11.1364C10.1658 11.0503 10.0908 10.9852 10.0003 10.9553C9.90985 10.9254 9.81138 10.9333 9.72663 10.9771Z" fill="white"/>
</svg>
