<svg width="16" height="16" viewBox="0 0 16 16" fill="none" xmlns="http://www.w3.org/2000/svg">
<circle cx="8" cy="8" r="8" fill="#0066ED"/>
<path fill-rule="evenodd" clip-rule="evenodd" d="M7.88652 2.67207C8.44794 3.10095 9.18606 4.41798 9.18606 5.9495C9.18606 6.71253 8.62724 7.44811 8.04434 8.21538C7.36422 9.11063 6.65133 10.049 6.75506 11.1245C6.83248 11.9278 7.16458 12.5255 7.36999 12.8951C7.58709 13.2859 7.66265 13.4218 7.14635 13.2767C5.35062 12.7718 3.58718 10.0403 5.48337 7.54883C5.65732 7.32027 5.86142 7.10418 6.07556 6.87746C6.87294 6.03326 7.80946 5.04174 7.84622 2.71074L7.84702 2.70885C7.84355 2.64761 7.88421 2.67072 7.88652 2.67207ZM10.0085 6.96185C10.0198 6.94297 10.0361 6.94836 10.0476 6.95627C10.4201 7.27886 11.4669 8.38922 11.3192 10.1508C11.1667 11.9699 9.7582 12.7683 9.69931 12.7982C9.17826 13.0621 9.16261 13.3221 9.10212 13.333C9.07529 13.3378 9.03965 13.2936 8.94721 13.1791C8.42903 12.537 7.50745 11.3415 9.12462 8.86146C9.60142 8.13032 9.9776 7.33408 10.0085 6.96185Z" fill="white"/>
</svg>
