<svg width="16" height="16" viewBox="0 0 16 16" fill="none" xmlns="http://www.w3.org/2000/svg">
<circle cx="8" cy="8" r="8" fill="url(#paint0_linear_859_10041)"/>
<path fill-rule="evenodd" clip-rule="evenodd" d="M2.63442 2.06616L2.51671 2.17483L3.14762 2.9459L5.193 5.46039L5.35967 5.67149C5.4653 5.81747 5.42553 5.94873 5.2446 6.05161C5.14402 6.10877 4.93715 6.16675 4.83357 6.16675C4.71645 6.16675 4.58445 6.11032 4.48837 6.01918C4.48618 6.0171 4.48377 6.01466 4.48115 6.01186L4.45145 5.97652L4.40905 5.92015L4.28286 5.73934L4.05843 5.4026L2.61524 3.18129L2.60748 3.1736C2.60611 3.17277 2.60551 3.17318 2.60631 3.17593L2.60815 3.18086L2.6258 3.21645L3.69594 5.13901L4.01595 5.72231L4.12691 5.93352L4.1624 6.00533L4.19096 6.06977L4.1978 6.08967L4.20002 6.10201C4.20002 6.19669 4.1742 6.24648 4.05738 6.37673L4.02212 6.41784C3.85191 6.6255 3.77171 6.86962 3.7128 7.34317L3.70238 7.4194C3.62362 7.94634 3.41934 8.3405 2.8954 8.99396L2.79784 9.11598L2.65265 9.30097L2.57782 9.4015L2.53956 9.45674L2.50775 9.50653L2.47995 9.55431L2.44041 9.62965C2.33831 9.83303 2.31023 9.94697 2.29886 10.2038C2.28682 10.4754 2.31023 10.6508 2.39322 10.9104C2.45374 11.0998 2.51647 11.2356 2.64787 11.4493L2.80754 11.7026L2.86898 11.8067L2.91924 11.8992C2.97113 11.9998 2.99905 12.0743 2.99905 12.1148L3.00022 12.1356C3.00312 12.1532 3.01288 12.1613 3.04465 12.1598L3.0843 12.1553C3.09232 12.154 3.10109 12.1524 3.11068 12.1506L3.17863 12.1366L3.38456 12.0888C3.95202 11.9453 4.41128 11.711 4.67684 11.4281C4.85214 11.2412 4.8933 11.138 4.89462 10.8819C4.89472 10.8633 4.89474 10.8463 4.89462 10.8307L4.89204 10.7514C4.8872 10.6842 4.87452 10.6472 4.84433 10.583C4.77066 10.4262 4.63649 10.2958 4.34076 10.0936L4.27069 10.0446C3.93309 9.80183 3.78497 9.59722 3.74212 9.32227C3.70902 9.10996 3.73899 8.95283 3.89376 8.61019L4.00751 8.36691C4.19209 7.96797 4.24194 7.766 4.27649 7.33079L4.28222 7.26409C4.30596 7.00975 4.34046 6.90116 4.4208 6.81269C4.51152 6.71273 4.59322 6.67887 4.81777 6.64819L4.90658 6.63473C5.22246 6.58181 5.43296 6.48873 5.60864 6.32687C5.77486 6.1737 5.84441 6.02609 5.85509 5.80392L5.8632 5.63549L5.77031 5.52718L5.70359 5.45109L2.63442 2.06616ZM2.82539 10.2431C2.8006 10.2258 2.78934 10.2059 2.78934 10.1804C2.78934 10.0763 2.9761 10.0386 3.09629 10.1186C3.22352 10.2032 3.26394 10.3763 3.18787 10.511C3.11505 10.6401 2.97594 10.6823 2.87769 10.6054C2.81672 10.5577 2.81245 10.4874 2.86561 10.4075L2.88097 10.3827C2.91624 10.3202 2.90582 10.2863 2.84655 10.2557L2.82539 10.2431Z" fill="#FF007A"/>
<path d="M5.47725 3.16546C5.32716 3.14216 5.32083 3.13944 5.39147 3.12857C5.52681 3.10775 5.84642 3.13614 6.06665 3.18849C6.58083 3.3107 7.04867 3.62379 7.54809 4.17983L7.68075 4.32755L7.87054 4.29703C8.67015 4.16853 9.48358 4.27066 10.1639 4.58495C10.3511 4.67144 10.6462 4.84355 10.683 4.88779C10.6948 4.90188 10.7164 4.9926 10.731 5.08942C10.7815 5.4244 10.7562 5.68118 10.6538 5.87295C10.598 5.9773 10.5949 6.01038 10.6324 6.0997C10.6623 6.17096 10.7457 6.2237 10.8283 6.22359C10.9974 6.22339 11.1794 5.95007 11.2637 5.56976L11.2972 5.41873L11.3635 5.49388C11.7275 5.90623 12.0133 6.46856 12.0625 6.86883L12.0752 6.97317L12.0141 6.8783C11.9088 6.71504 11.803 6.60389 11.6675 6.51426C11.4234 6.35271 11.1652 6.29772 10.4814 6.26168C9.86382 6.22914 9.5143 6.1764 9.16774 6.06339C8.57807 5.87112 8.28079 5.61508 7.58036 4.6961C7.26925 4.28794 7.07694 4.06208 6.88568 3.88022C6.45104 3.46698 6.02397 3.25024 5.47725 3.16546Z" fill="#FF007A"/>
<path d="M10.8224 4.07678C10.838 3.80326 10.8751 3.62288 10.9497 3.4581C10.9792 3.3929 11.0068 3.33954 11.0111 3.33954C11.0154 3.33954 11.0025 3.38765 10.9826 3.44649C10.9284 3.60637 10.9195 3.82509 10.9568 4.07954C11.0042 4.40237 11.0312 4.44897 11.3724 4.79771C11.5325 4.96128 11.7186 5.16761 11.7861 5.25619L11.9088 5.41724L11.7861 5.30213C11.636 5.1614 11.2909 4.88687 11.2147 4.84765C11.1636 4.82132 11.156 4.82178 11.1245 4.85316C11.0954 4.8821 11.0893 4.92551 11.0852 5.13095C11.079 5.4511 11.0353 5.65662 10.93 5.86209C10.8731 5.9732 10.8641 5.94951 10.9156 5.82407C10.9541 5.7304 10.958 5.68924 10.9577 5.3793C10.9571 4.75654 10.8832 4.60683 10.4496 4.35041C10.3398 4.28544 10.1588 4.19173 10.0475 4.14218C9.93616 4.09258 9.84769 4.04944 9.85092 4.04622C9.86319 4.03398 10.286 4.1574 10.4562 4.22287C10.7093 4.32023 10.7511 4.33285 10.7819 4.32113C10.8025 4.31324 10.8124 4.2532 10.8224 4.07678Z" fill="#FF007A"/>
<path d="M5.76871 5.1421C5.46401 4.72264 5.27551 4.0795 5.31632 3.59873L5.32894 3.44995L5.3983 3.46261C5.52855 3.48634 5.7531 3.56995 5.85826 3.6338C6.14681 3.80906 6.27174 4.03977 6.39885 4.63228C6.43605 4.80579 6.4849 5.00218 6.50739 5.06866C6.54358 5.17569 6.68028 5.42567 6.79143 5.588C6.87151 5.70493 6.81834 5.76035 6.64133 5.74435C6.37104 5.71996 6.0049 5.46726 5.76871 5.1421Z" fill="#FF007A"/>
<path d="M10.4527 8.26404C9.02886 7.69072 8.52734 7.19309 8.52734 6.35344C8.52734 6.22991 8.53162 6.12878 8.53678 6.12878C8.54198 6.12878 8.59705 6.16956 8.65919 6.21942C8.94793 6.451 9.27127 6.54991 10.1664 6.68051C10.6931 6.75736 10.9895 6.81942 11.2629 6.9101C12.132 7.19833 12.6697 7.78322 12.7979 8.57992C12.8352 8.81141 12.8134 9.24555 12.7529 9.47432C12.7052 9.65502 12.5597 9.98077 12.5211 9.99327C12.5104 9.99673 12.4999 9.95572 12.4972 9.89991C12.4825 9.60077 12.3313 9.30951 12.0775 9.09133C11.7888 8.8433 11.401 8.64582 10.4527 8.26404Z" fill="#FF007A"/>
<path d="M9.45312 8.5022C9.43526 8.39603 9.40431 8.26046 9.38435 8.20092L9.348 8.09265L9.41549 8.16842C9.50889 8.27323 9.58268 8.40737 9.64524 8.58601C9.69297 8.72236 9.69833 8.7629 9.69798 8.98445C9.69763 9.20201 9.69165 9.2476 9.64757 9.37032C9.57805 9.56383 9.4918 9.70107 9.34706 9.84837C9.08695 10.1131 8.75254 10.2596 8.26998 10.3204C8.18609 10.331 7.94163 10.3488 7.72668 10.3599C7.18501 10.3881 6.8285 10.4463 6.50815 10.5588C6.46213 10.575 6.42101 10.5848 6.41681 10.5806C6.40384 10.5677 6.62198 10.4377 6.80209 10.351C7.05611 10.2286 7.30897 10.1618 7.87553 10.0675C8.15541 10.0209 8.44442 9.96433 8.51782 9.94181C9.21087 9.7293 9.56714 9.18096 9.45312 8.5022Z" fill="#FF007A"/>
<path d="M10.1059 9.66144C9.91676 9.25476 9.8733 8.86206 9.97695 8.49589C9.98806 8.45678 10.0059 8.42474 10.0166 8.42474C10.0273 8.42474 10.072 8.44886 10.1158 8.47837C10.203 8.53705 10.3778 8.63589 10.8436 8.88987C11.4249 9.20676 11.7563 9.45216 11.9817 9.73254C12.1791 9.9781 12.3012 10.2577 12.36 10.5987C12.3933 10.7919 12.3738 11.2567 12.3242 11.4512C12.1679 12.0645 11.8047 12.5462 11.2866 12.8273C11.2107 12.8685 11.1426 12.9023 11.1352 12.9025C11.1278 12.9026 11.1555 12.8323 11.1967 12.7462C11.371 12.3819 11.3908 12.0275 11.2591 11.6331C11.1784 11.3916 11.0139 11.0969 10.6817 10.5988C10.2956 10.0197 10.2009 9.86563 10.1059 9.66144Z" fill="#FF007A"/>
<path d="M4.75766 11.8557C5.28605 11.4095 5.94353 11.0926 6.5424 10.9953C6.8005 10.9534 7.23044 10.97 7.46943 11.0312C7.85254 11.1292 8.19525 11.3488 8.37347 11.6104C8.54764 11.8662 8.62236 12.0889 8.70015 12.5847C8.73087 12.7803 8.76423 12.9767 8.77432 13.0211C8.83277 13.2781 8.94648 13.4835 9.08737 13.5866C9.31114 13.7504 9.6965 13.7606 10.0756 13.6127C10.1399 13.5876 10.1958 13.5703 10.1997 13.5742C10.2134 13.5879 10.0226 13.7156 9.88788 13.7829C9.70667 13.8734 9.56259 13.9084 9.37114 13.9084C9.02395 13.9084 8.73572 13.7318 8.49522 13.3717C8.44788 13.3008 8.34151 13.0885 8.25883 12.8999C8.00485 12.3207 7.87949 12.1443 7.58461 11.9512C7.32803 11.7832 6.99712 11.7531 6.74815 11.8751C6.42116 12.0355 6.3299 12.4533 6.56411 12.7182C6.6572 12.8234 6.83079 12.9142 6.97273 12.9319C7.23828 12.9649 7.46652 12.7629 7.46652 12.4948C7.46652 12.3207 7.3996 12.2213 7.23114 12.1453C7.00108 12.0415 6.75382 12.1629 6.75498 12.379C6.75549 12.4712 6.79564 12.529 6.88799 12.5708C6.94725 12.5976 6.94865 12.5997 6.9003 12.5897C6.68923 12.546 6.6398 12.2915 6.80951 12.1225C7.01327 11.9197 7.43463 12.0092 7.57933 12.286C7.64011 12.4023 7.64718 12.6339 7.59417 12.7737C7.47556 13.0867 7.1297 13.2513 6.77887 13.1618C6.53999 13.1008 6.44275 13.0347 6.15475 12.7381C5.65432 12.2226 5.46003 12.1227 4.73859 12.0101L4.60034 11.9885L4.75766 11.8557Z" fill="#FF007A"/>
<path fill-rule="evenodd" clip-rule="evenodd" d="M6.09426 6.73652C5.92238 6.7893 5.75531 6.97147 5.70358 7.16246C5.67201 7.279 5.68991 7.48339 5.73717 7.5465C5.81352 7.64848 5.88735 7.67535 6.08727 7.67391C6.47869 7.6712 6.81896 7.50331 6.85849 7.29349C6.89092 7.12145 6.74148 6.88304 6.53566 6.77838C6.42945 6.7244 6.20354 6.70297 6.09426 6.73652ZM6.55181 7.0943C6.61216 7.00856 6.58576 6.91586 6.48308 6.85318C6.28758 6.7338 5.99197 6.83256 5.99197 7.01726C5.99197 7.10918 6.14615 7.20949 6.28747 7.20949C6.38152 7.20949 6.51022 7.15341 6.55181 7.0943Z" fill="#FF007A"/>
<defs>
<linearGradient id="paint0_linear_859_10041" x1="8" y1="24" x2="24" y2="8" gradientUnits="userSpaceOnUse">
<stop stop-color="#FEF4F9"/>
<stop offset="1" stop-color="#FFD9E8"/>
</linearGradient>
</defs>
</svg>
