<svg width="16" height="16" viewBox="0 0 16 16" fill="none" xmlns="http://www.w3.org/2000/svg">
<circle cx="8" cy="8" r="8" fill="#FAFAFA"/>
<path fill-rule="evenodd" clip-rule="evenodd" d="M10.8148 2.98232C10.78 3.01633 10.7452 3.05034 10.71 3.08403C10.6892 3.10727 10.6683 3.13047 10.6474 3.15367C10.5512 3.2606 10.455 3.36752 10.3636 3.47876C10.2153 3.65929 10.0703 3.84231 9.93513 4.03293C9.89111 4.09497 9.89096 4.09491 9.8253 4.06992L9.82186 4.06861C9.51517 3.95187 9.19878 3.87054 8.87551 3.81653C8.51474 3.75624 8.1509 3.73936 7.78577 3.75209C7.53081 3.76098 7.27611 3.77735 7.02481 3.82456C6.73423 3.8792 6.45056 3.95883 6.17694 4.0717C6.13378 4.08951 6.10828 4.08367 6.07673 4.04667C5.92116 3.86422 5.76298 3.68392 5.60351 3.50484C5.52809 3.42014 5.45105 3.33686 5.374 3.25358C5.33616 3.21268 5.29833 3.17179 5.26068 3.13072C5.25647 3.12611 5.25291 3.12089 5.24936 3.11568C5.24774 3.11331 5.24612 3.11094 5.24443 3.10862C5.21912 3.08367 5.1938 3.05874 5.16848 3.03381C5.10635 2.97264 5.04423 2.91148 4.98226 2.85015C4.76468 2.63486 4.53521 2.43359 4.27716 2.26768C4.08369 2.1433 3.87992 2.04284 3.64857 2.00692C3.5167 1.98645 3.45912 2.00774 3.38804 2.12074C3.3262 2.21904 3.2884 2.32755 3.25945 2.43861C3.20612 2.64313 3.19202 2.85326 3.18416 3.06326C3.17781 3.23371 3.1799 3.40432 3.18835 3.57507C3.19701 3.75008 3.20951 3.92453 3.22761 4.09869C3.2452 4.26802 3.26824 4.43663 3.29324 4.60508C3.29893 4.64348 3.30597 4.68169 3.313 4.71988C3.32594 4.79022 3.33888 4.86055 3.34351 4.93214C3.35273 4.97382 3.36203 5.01548 3.37134 5.05715C3.39176 5.14864 3.41219 5.24013 3.43172 5.33181C3.47103 5.51633 3.51923 5.69856 3.5709 5.87986C3.63863 6.11758 3.71544 6.35232 3.80793 6.58172C3.81741 6.6052 3.8102 6.62621 3.80019 6.64803C3.69988 6.86596 3.60311 7.08545 3.5201 7.31065C3.50598 7.34897 3.49226 7.35511 3.46521 7.31939C3.46434 7.32224 3.46333 7.32483 3.46248 7.32704C3.46098 7.3309 3.45993 7.3336 3.46079 7.33449C3.49765 7.37295 3.48294 7.41201 3.46823 7.45107C3.46641 7.45592 3.46458 7.46076 3.46285 7.46561C3.38023 7.69716 3.31174 7.93275 3.25427 8.17188C3.2184 8.32116 3.18546 8.47105 3.15974 8.62209C3.12939 8.80045 3.10364 8.97962 3.08914 9.16042C3.08846 9.16893 3.08778 9.17743 3.0871 9.18594C3.0767 9.31529 3.06632 9.44447 3.06445 9.57425C3.0715 9.57305 3.07854 9.57185 3.08559 9.57065C3.19971 9.55123 3.31386 9.53181 3.42937 9.52249C3.67714 9.50249 3.92372 9.50463 4.1706 9.54255C4.83409 9.64446 5.36317 9.9802 5.8058 10.4697L5.85252 10.5213C5.86507 10.4922 5.87741 10.4636 5.88961 10.4354C5.91455 10.3776 5.93888 10.3213 5.9631 10.2649C6.0377 10.0915 6.12736 9.92584 6.22498 9.76443C6.24203 9.73625 6.25852 9.70779 6.275 9.67934C6.3284 9.58716 6.38172 9.49512 6.45348 9.41332C6.71084 9.11992 7.01291 8.89566 7.38863 8.77822C7.57886 8.71877 7.77384 8.6785 7.97287 8.67903C8.3568 8.67999 8.7198 8.76817 9.04958 8.97144C9.26344 9.1033 9.44862 9.2692 9.61307 9.45861C9.6598 9.51242 9.69861 9.57155 9.72964 9.63555C9.7523 9.68233 9.77548 9.72887 9.79866 9.7754C9.88073 9.94017 9.9628 10.1049 10.0217 10.2802C10.0402 10.3353 10.0586 10.3905 10.0774 10.4471C10.0853 10.4707 10.0932 10.4947 10.1013 10.5189C10.1238 10.4966 10.146 10.4745 10.1679 10.4525C10.2151 10.4052 10.2615 10.3588 10.3091 10.3137C10.5668 10.0699 10.8564 9.87326 11.1847 9.73737C11.437 9.63288 11.6999 9.57112 11.9728 9.54362C12.2092 9.5198 12.4432 9.5311 12.6777 9.55568C12.7269 9.56085 12.7758 9.56887 12.8247 9.57689C12.8471 9.58057 12.8695 9.58425 12.892 9.58766C12.9053 9.55168 12.8998 9.51585 12.8943 9.48009C12.8917 9.46279 12.889 9.44551 12.8885 9.42824C12.8845 9.29015 12.8758 9.15199 12.8636 9.01434C12.8495 8.85542 12.8299 8.69703 12.8048 8.53934C12.7637 8.28144 12.7071 8.02708 12.6323 7.77689C12.5865 7.62375 12.5314 7.47374 12.4757 7.32392C12.4281 7.19573 12.3662 7.07434 12.3044 6.95295C12.2644 6.87461 12.2245 6.79628 12.1884 6.71611C12.1563 6.64474 12.138 6.58095 12.1654 6.49806C12.2588 6.21538 12.3387 5.92831 12.4144 5.64025C12.4788 5.39555 12.5415 5.15039 12.5945 4.9029C12.5967 4.89274 12.5999 4.88278 12.6031 4.87282C12.6046 4.86819 12.6061 4.86356 12.6074 4.85891C12.6132 4.81479 12.6228 4.77139 12.6324 4.72802C12.6387 4.69958 12.645 4.67115 12.6502 4.64253L12.6554 4.61383C12.6881 4.43329 12.7209 4.25276 12.7473 4.07106C12.7826 3.8293 12.807 3.58652 12.8164 3.34275C12.8279 3.04428 12.8163 2.74681 12.7385 2.4555C12.7007 2.31414 12.6513 2.17828 12.5734 2.05312C12.5553 2.02407 12.5369 2.01846 12.5064 2.02081C12.2939 2.03728 12.094 2.10034 11.9012 2.18691C11.6049 2.32002 11.3433 2.5065 11.0979 2.71741C10.9998 2.80177 10.9073 2.89204 10.8148 2.98232ZM10.7748 4.6188C10.7888 4.64298 10.8101 4.6594 10.8314 4.67584C10.8441 4.68566 10.8569 4.69548 10.868 4.70696C10.9062 4.7462 10.945 4.78491 10.9837 4.82363C11.0796 4.91956 11.1755 5.01549 11.2637 5.11924C11.362 5.23497 11.4557 5.35396 11.5459 5.47588C11.6409 5.60412 11.7304 5.7362 11.8157 5.871C11.8194 5.87672 11.8222 5.88335 11.825 5.88995C11.8319 5.9063 11.8388 5.92244 11.8575 5.92381C11.8646 5.92431 11.8767 5.88633 11.883 5.86495C11.9052 5.79008 11.9282 5.71547 11.9512 5.64086C11.9823 5.54021 12.0133 5.43955 12.0423 5.33822C12.0995 5.13801 12.1525 4.9368 12.1968 4.73366C12.2454 4.51137 12.2873 4.28779 12.3128 4.06087C12.3298 3.9099 12.3394 3.75887 12.3452 3.6077C12.3499 3.48516 12.3363 3.36273 12.3228 3.24066L12.3189 3.20463C12.3179 3.20184 12.3168 3.19907 12.3157 3.1963C12.3134 3.19043 12.311 3.18457 12.3104 3.17853C12.296 3.05245 12.2569 2.93354 12.2044 2.81889C12.1785 2.76231 12.1727 2.76174 12.1129 2.78539C11.9057 2.86753 11.7099 2.97226 11.5267 3.09829C11.2393 3.29601 10.9772 3.52499 10.7262 3.76663C10.58 3.90734 10.4406 4.05466 10.3046 4.20531C10.2839 4.22825 10.2789 4.2408 10.3086 4.26255L10.3494 4.29237C10.4472 4.3637 10.545 4.43502 10.6391 4.51143C10.6531 4.52282 10.6664 4.5352 10.6797 4.5476C10.7088 4.57466 10.7379 4.60181 10.7748 4.6188ZM3.66839 2.83474C3.69368 2.77798 3.6997 2.76973 3.72824 2.77365C3.80303 2.79584 3.87802 2.82867 3.95043 2.86439C4.10683 2.94158 4.25629 3.03196 4.39947 3.13174C4.53652 3.22728 4.66596 3.33263 4.79372 3.44045C4.97001 3.5892 5.13568 3.74893 5.29886 3.91137C5.36206 3.97427 5.42262 4.03982 5.48318 4.10538L5.48318 4.10538C5.51537 4.14022 5.54755 4.17505 5.58013 4.2095C5.59921 4.22967 5.60076 4.24288 5.57506 4.26026C5.43528 4.35471 5.30272 4.45895 5.17301 4.56661C5.03335 4.68252 4.9054 4.81107 4.7793 4.94134C4.6233 5.10243 4.4842 5.27759 4.34896 5.45626C4.24044 5.59965 4.14403 5.75077 4.04814 5.90243L4.04535 5.90735C4.04186 5.91388 4.0383 5.92052 4.02936 5.92052C4.01574 5.92052 4.01202 5.90869 4.00896 5.89898L4.00888 5.89873L3.97368 5.78699C3.94074 5.68283 3.9078 5.57867 3.8775 5.47375C3.82781 5.30186 3.77955 5.12947 3.73594 4.95596C3.70096 4.81684 3.67015 4.67668 3.64296 4.53555C3.62246 4.42898 3.60334 4.32228 3.58696 4.21513C3.57221 4.11852 3.56062 4.02146 3.55205 3.92394C3.5397 3.78314 3.52781 3.64225 3.53503 3.50111C3.54669 3.27275 3.57381 3.04689 3.66839 2.83474ZM5.70495 7.06818C5.76671 7.07239 5.83569 7.06665 5.90593 7.06081L5.9562 7.05676C6.04794 7.04982 6.13912 7.03244 6.22606 7.0011C6.2797 6.98176 6.32937 6.95031 6.35058 6.89419C6.38955 6.791 6.39824 6.6824 6.36769 6.57713C6.32014 6.41339 6.20017 6.30297 6.07019 6.20183C5.95714 6.11385 5.82917 6.07852 5.68955 6.10212C5.44869 6.14279 5.20347 6.35614 5.17393 6.60707C5.1609 6.71746 5.15467 6.82293 5.21839 6.92244C5.26125 6.98945 5.30594 7.04552 5.39422 7.05263L5.41281 7.05413L5.41283 7.05413C5.50633 7.06172 5.6003 7.06934 5.70495 7.06818ZM10.2537 7.06969C10.2914 7.07238 10.3446 7.06795 10.4024 7.06313C10.4276 7.06103 10.4537 7.05886 10.4797 7.05717C10.5559 7.05226 10.6281 7.03486 10.6745 6.96243C10.7396 6.8608 10.7664 6.75051 10.7499 6.63213C10.7211 6.4247 10.6 6.27937 10.4246 6.17675C10.2845 6.09476 10.1348 6.06879 9.97756 6.12546C9.88606 6.15846 9.81237 6.21978 9.74314 6.28476C9.62061 6.39978 9.52694 6.53164 9.51312 6.70743C9.50039 6.86888 9.56592 6.96625 9.7189 7.01138C9.88327 7.05985 10.052 7.06599 10.2537 7.06969ZM11.0825 7.75579L11.0825 7.77086C11.0816 7.78937 11.0803 7.80788 11.0791 7.82639C11.0762 7.86935 11.0733 7.91232 11.0739 7.95525C11.0746 8.00266 11.0529 8.03573 11.0235 8.06821C10.9115 8.19177 10.7732 8.27874 10.6269 8.35457C10.4066 8.46863 10.1735 8.54839 9.93342 8.60695C9.74691 8.65244 9.55803 8.68682 9.36454 8.68716C9.31297 8.68725 9.26362 8.67736 9.21447 8.66551C9.16238 8.65295 9.14634 8.62456 9.15384 8.57621C9.17806 8.41989 9.27399 8.30691 9.38135 8.202C9.49379 8.09214 9.62486 8.00696 9.75576 7.92188C9.783 7.90418 9.81023 7.88648 9.83728 7.86857C10.0314 7.74005 10.2291 7.61706 10.4378 7.51289C10.5847 7.43953 10.7337 7.3693 10.9001 7.35463C11.0118 7.34481 11.012 7.34539 11.0427 7.44123L11.0516 7.46897C11.0821 7.56171 11.0823 7.65892 11.0825 7.75579ZM4.95146 7.75506C4.95207 7.76666 4.9531 7.78045 4.95425 7.79583C4.9574 7.83794 4.96145 7.89199 4.96021 7.9459C4.95863 8.01472 4.99215 8.0607 5.03769 8.10457C5.22643 8.28646 5.45804 8.39356 5.6989 8.48432C5.85542 8.54334 6.01581 8.58913 6.17931 8.62515C6.34322 8.66128 6.50825 8.68746 6.67615 8.69212C6.73613 8.69376 6.79574 8.68711 6.85334 8.66768C6.90221 8.65121 6.91756 8.62753 6.90966 8.57895C6.90273 8.53633 6.8898 8.49581 6.8704 8.45719C6.79537 8.30791 6.6794 8.19371 6.54508 8.10087C6.19825 7.86119 5.84633 7.6288 5.45728 7.4607C5.33898 7.40956 5.21743 7.3677 5.08471 7.36925C5.03965 7.36978 5.02005 7.38825 5.00378 7.42658C4.96662 7.51406 4.96084 7.60612 4.95358 7.72168L4.95146 7.75506Z" fill="#F4A817"/>
<path d="M12.8918 9.58767C12.9115 9.53427 12.8899 9.48122 12.8883 9.42823C12.8843 9.29012 12.8756 9.15201 12.8634 9.01433C12.8493 8.85544 12.8297 8.69702 12.8046 8.53932C12.7635 8.28144 12.7069 8.02705 12.6321 7.77689C12.5863 7.62375 12.5312 7.47374 12.4755 7.32391C12.3971 7.11303 12.2802 6.9205 12.1882 6.71608C12.1561 6.64473 12.1378 6.58094 12.1652 6.49806C12.2586 6.21537 12.3385 5.92832 12.4142 5.64025C12.4786 5.39552 12.5413 5.15039 12.5943 4.90288C12.5975 4.88801 12.6029 4.87355 12.6072 4.85889C12.7532 5.06801 12.8794 5.28864 12.9955 5.51548C13.1455 5.80844 13.2695 6.11214 13.3698 6.42518C13.456 6.69434 13.5223 6.96864 13.5711 7.24754C13.6412 7.64764 13.6724 8.05044 13.666 8.45604C13.6611 8.76413 13.6348 9.07097 13.5839 9.37492C13.4552 10.1429 13.1969 10.8646 12.7971 11.5334C12.3906 12.2134 11.8712 12.7927 11.2319 13.2632C10.8778 13.5237 10.4987 13.7388 10.0938 13.91C9.857 14.0101 9.6147 14.0935 9.36641 14.1585C9.09686 14.2292 8.82305 14.2778 8.54543 14.3058C8.20557 14.3402 7.8654 14.342 7.52565 14.3131C7.24196 14.289 6.96194 14.2399 6.68509 14.1707C6.30628 14.0759 5.94223 13.9421 5.59362 13.7681C4.76187 13.3529 4.07606 12.7638 3.52442 12.0172C3.23397 11.6241 2.99736 11.2008 2.80985 10.7494C2.70249 10.491 2.61213 10.227 2.54075 9.95685C2.46654 9.67595 2.41321 9.3908 2.37851 9.10201C2.3278 8.68003 2.32083 8.25729 2.35308 7.83405C2.37927 7.49018 2.43426 7.15028 2.51869 6.81585C2.68794 6.14535 2.95794 5.51826 3.33719 4.93905C3.33886 4.93652 3.34124 4.93444 3.34328 4.93213C3.37278 5.06533 3.40309 5.19835 3.43151 5.3318C3.47084 5.5163 3.51902 5.69854 3.57069 5.87984C3.63842 6.11757 3.71523 6.35232 3.80774 6.58169C3.8172 6.6052 3.81001 6.62621 3.79998 6.648C3.69967 6.86596 3.6029 7.08544 3.51991 7.31066C3.50578 7.34897 3.49205 7.35511 3.465 7.31939C3.4626 7.32718 3.45925 7.33309 3.46058 7.33446C3.50204 7.3777 3.47831 7.42171 3.46264 7.46561C3.38002 7.69718 3.31153 7.93274 3.25406 8.17187C3.21819 8.32115 3.18525 8.47105 3.15955 8.62211C3.12918 8.80044 3.10343 8.97962 3.08894 9.16044C3.07789 9.29827 3.06624 9.43593 3.06424 9.57427C3.05311 9.74595 3.06891 9.91492 3.11402 10.0812C3.18076 10.3272 3.28854 10.5549 3.42244 10.7708C3.69191 11.2052 4.03914 11.5715 4.42336 11.9045C4.95727 12.3672 5.54678 12.744 6.18866 13.0394C6.31494 13.0976 6.44012 13.1569 6.57099 13.2054C6.66734 13.2411 6.76394 13.2745 6.86077 13.308C6.92115 13.3289 6.98241 13.3509 7.04373 13.3698C7.27102 13.4398 7.50379 13.4869 7.74008 13.5098C8.00904 13.5359 8.27734 13.5202 8.54431 13.4752C8.78325 13.435 9.01758 13.3768 9.24777 13.3027C9.48508 13.2262 9.71655 13.1341 9.94318 13.0296C10.2637 12.8818 10.571 12.7109 10.8654 12.5165C11.1433 12.3329 11.4069 12.1306 11.6518 11.9047C11.7564 11.8083 11.8611 11.7117 11.9516 11.6012C11.9634 11.5988 11.9686 11.5899 11.9728 11.5799L11.9757 11.5797L11.9768 11.577C11.9815 11.5731 11.9868 11.5697 11.9908 11.5651C12.1583 11.3768 12.3151 11.1808 12.4436 10.9629C12.515 10.842 12.591 10.7237 12.6505 10.5963C12.759 10.3639 12.8356 10.1216 12.8736 9.86734C12.8875 9.77448 12.8952 9.68152 12.8918 9.58767Z" fill="#F00500"/>
<path d="M10.7098 3.08401C10.5929 3.21439 10.4746 3.34338 10.3633 3.47875C10.215 3.65927 10.0701 3.84229 9.93489 4.03292C9.8901 4.09603 9.89072 4.09488 9.82161 4.06859C9.5149 3.95186 9.19853 3.87053 8.87526 3.81651C8.51447 3.75622 8.15063 3.73935 7.78552 3.75208C7.53057 3.76096 7.27586 3.77733 7.02456 3.82455C6.73399 3.87918 6.45031 3.95882 6.17669 4.07169C6.13351 4.0895 6.10803 4.08366 6.07648 4.04666C5.92091 3.86421 5.76274 3.68391 5.60326 3.50483C5.49078 3.37852 5.37474 3.2554 5.26043 3.1307C5.25431 3.12399 5.24956 3.116 5.24414 3.10863C5.57751 2.91255 5.92731 2.75197 6.29417 2.63002C6.60094 2.52803 6.91462 2.45494 7.23526 2.40885C7.64444 2.35003 8.05439 2.34123 8.46547 2.37421C8.74789 2.39687 9.02651 2.44492 9.30185 2.51322C9.78795 2.6338 10.2468 2.82131 10.6829 3.06631C10.6922 3.07156 10.7008 3.07808 10.7098 3.08401Z" fill="#F00500"/>
<path fill-rule="evenodd" clip-rule="evenodd" d="M11.6521 11.9048C11.7566 11.8084 11.8614 11.7117 11.9518 11.6012L11.9491 11.598C11.9475 11.5973 11.9455 11.5969 11.9436 11.5965C11.938 11.5955 11.9325 11.5945 11.9345 11.5861C11.9351 11.5839 11.9394 11.5826 11.9438 11.5812C11.9457 11.5807 11.9475 11.5801 11.9491 11.5795C11.9491 11.5795 11.9491 11.5796 11.949 11.5797L11.9493 11.5794C11.9493 11.5794 11.9492 11.5794 11.9491 11.5795C11.9507 11.5594 11.964 11.5486 11.9786 11.5367C11.983 11.5332 11.9874 11.5296 11.9917 11.5256C11.9929 11.536 11.9879 11.5438 11.9831 11.5512C11.9779 11.5593 11.973 11.567 11.977 11.5771C11.9785 11.5758 11.9801 11.5745 11.9817 11.5733C11.985 11.5708 11.9883 11.5682 11.991 11.5652C12.1584 11.3768 12.3153 11.1808 12.4439 10.9629C12.4597 10.936 12.4758 10.9093 12.4919 10.8826C12.5482 10.789 12.6044 10.6954 12.6507 10.5963C12.7592 10.364 12.8359 10.1216 12.8738 9.86738C12.8877 9.7745 12.8954 9.68156 12.892 9.58767C12.8695 9.58426 12.8471 9.58058 12.8247 9.57689C12.7758 9.56887 12.7269 9.56084 12.6778 9.55569C12.4432 9.53112 12.2093 9.51983 11.9728 9.54363C11.6999 9.57113 11.437 9.63289 11.1847 9.73738C10.8565 9.87328 10.5668 10.0699 10.3091 10.3138C10.2616 10.3588 10.2153 10.4051 10.1682 10.4523C10.1462 10.4743 10.124 10.4966 10.1014 10.5189C10.0917 10.4899 10.0822 10.4614 10.0728 10.4331C10.0556 10.3814 10.0387 10.3308 10.0217 10.2802C9.96281 10.1049 9.88072 9.94011 9.79864 9.77532C9.77547 9.72881 9.7523 9.6823 9.72966 9.63556C9.69863 9.57154 9.65981 9.51241 9.61309 9.4586C9.44861 9.26922 9.26348 9.10331 9.0496 8.97146C8.71984 8.76819 8.35682 8.68 7.97289 8.67902C7.77388 8.67852 7.57888 8.71876 7.38865 8.77824C7.01292 8.89568 6.71086 9.11991 6.4535 9.41333C6.38171 9.49515 6.32839 9.5872 6.27497 9.67939C6.2585 9.70783 6.24201 9.73628 6.22498 9.76445C6.1274 9.92585 6.03774 10.0915 5.96312 10.265L5.85254 10.5213L5.80582 10.4697C5.36317 9.98019 4.83411 9.64447 4.17061 9.54256C3.92373 9.50462 3.67715 9.50252 3.42938 9.52251C3.31366 9.53184 3.1993 9.55132 3.08496 9.57079C3.07813 9.57196 3.0713 9.57312 3.06446 9.57428C3.05333 9.74597 3.06914 9.91494 3.11424 10.0812C3.18099 10.3272 3.28874 10.5549 3.42267 10.7708C3.69213 11.2053 4.03936 11.5716 4.42356 11.9045C4.95749 12.3672 5.547 12.744 6.18886 13.0394C6.20344 13.0461 6.218 13.0529 6.23257 13.0596C6.34414 13.1111 6.45545 13.1626 6.57121 13.2054C6.66756 13.2411 6.76416 13.2745 6.86099 13.308C6.87339 13.3123 6.88582 13.3166 6.89829 13.321C6.94653 13.3378 6.99522 13.3548 7.04397 13.3698C7.27124 13.4398 7.50401 13.4869 7.7403 13.5098C8.00926 13.5359 8.27756 13.5202 8.54453 13.4753C8.78347 13.435 9.0178 13.3768 9.24799 13.3027C9.48531 13.2262 9.71677 13.1341 9.9434 13.0296C10.2639 12.8819 10.5712 12.7109 10.8656 12.5165C11.1436 12.333 11.4071 12.1306 11.6521 11.9048ZM9.31673 11.2743L9.41521 11.2743L9.3896 11.3802C9.36636 11.4763 9.34347 11.5709 9.32099 11.6656C9.31484 11.6915 9.29761 11.6915 9.27636 11.6915C9.20224 11.6912 9.20197 11.6919 9.17543 11.7612L9.17499 11.7623L9.08328 12.0011L9.03041 12.1386C9.02124 12.1214 9.01062 12.1055 9.00024 12.0901C8.97539 12.053 8.95186 12.018 8.95264 11.9698C8.9537 11.9037 8.95416 11.8375 8.95462 11.7714V11.7714V11.7714V11.7713C8.95519 11.6896 8.95575 11.6079 8.95746 11.5263C8.95817 11.4927 8.95239 11.4852 8.91734 11.4913C8.60723 11.5454 8.29463 11.5721 7.97988 11.5602C7.78476 11.5528 7.58982 11.5385 7.39779 11.4991C7.38233 11.496 7.36651 11.4945 7.35135 11.4932L7.35134 11.4932L7.35132 11.4932C7.34452 11.4926 7.33785 11.492 7.3314 11.4912C7.3314 11.534 7.33109 11.5767 7.33078 11.6193V11.6193V11.6194C7.33004 11.7217 7.3293 11.8238 7.33284 11.9257C7.33553 12.0038 7.32991 12.0752 7.27044 12.136C7.2191 12.0671 7.18702 11.9867 7.15926 11.9048L7.15792 11.9009L7.15792 11.9009C7.13777 11.8414 7.11744 11.7814 7.1108 11.7185C7.10584 11.6713 7.07336 11.6753 7.04473 11.6841C7.00123 11.6974 6.98802 11.6843 6.97938 11.6407C6.96894 11.5878 6.95962 11.5349 6.95601 11.4816C6.95341 11.4433 6.94139 11.4149 6.91157 11.3911C6.89527 11.3781 6.88045 11.3632 6.86562 11.3483L6.86562 11.3483L6.8656 11.3483L6.86559 11.3483C6.85865 11.3413 6.85172 11.3344 6.84463 11.3276C6.83179 11.3153 6.83428 11.2997 6.83659 11.2852L6.83675 11.2842C6.83873 11.2716 6.84806 11.2729 6.85641 11.2741L6.85641 11.2741C6.85875 11.2745 6.861 11.2748 6.863 11.2748C6.9317 11.275 7.0004 11.2754 7.06909 11.2759L7.06927 11.2759L7.24202 11.2769C7.26559 11.277 7.28497 11.2806 7.28545 11.31C7.28577 11.3286 7.29775 11.3292 7.31117 11.3298L7.31408 11.33C7.47865 11.3389 7.64336 11.3392 7.80809 11.3395L7.85933 11.3395C7.87873 11.3396 7.89018 11.3336 7.89961 11.3167C7.90962 11.2987 7.92034 11.2811 7.93106 11.2635L7.93107 11.2635L7.93108 11.2635C7.94261 11.2446 7.95413 11.2257 7.96475 11.2063L7.96481 11.2061C7.98295 11.1731 7.99992 11.1421 8.0468 11.1536C8.06802 11.1589 8.07198 11.1446 8.07191 11.1264L8.07187 11.1171V11.117C8.0714 11.0031 8.07093 10.8892 8.07207 10.7753C8.07231 10.7529 8.05977 10.7479 8.04516 10.742L8.03869 10.7394C7.86199 10.6628 7.69527 10.5702 7.55978 10.4302C7.44785 10.3145 7.37903 10.1812 7.38902 10.014C7.39235 9.95853 7.39147 9.90281 7.39058 9.84708C7.39017 9.82111 7.38976 9.79514 7.38977 9.76919C7.38991 9.59547 7.50456 9.48063 7.67825 9.48054C7.96331 9.48041 8.24838 9.48038 8.53343 9.48057C8.68703 9.48066 8.84258 9.63784 8.83737 9.79141C8.83603 9.83156 8.8363 9.87178 8.83658 9.91201C8.83718 9.9995 8.83779 10.087 8.8217 10.1737C8.78754 10.358 8.68514 10.4988 8.53859 10.61C8.46386 10.6667 8.38296 10.7134 8.29337 10.743C8.2734 10.7495 8.26826 10.7593 8.2684 10.7791C8.26927 10.8946 8.26956 11.0101 8.26826 11.1257C8.26799 11.1507 8.27633 11.1592 8.2997 11.1553C8.33685 11.1489 8.35659 11.1657 8.37347 11.199C8.37788 11.2077 8.38221 11.2168 8.38661 11.226L8.38663 11.226L8.38664 11.2261C8.40626 11.2673 8.42708 11.3111 8.4605 11.3306C8.48826 11.3468 8.52743 11.3436 8.56643 11.3404C8.58272 11.3391 8.59899 11.3378 8.61438 11.3379C8.6484 11.3381 8.68242 11.3381 8.71644 11.3381C8.78412 11.338 8.8518 11.338 8.91942 11.3399C8.95419 11.3408 8.97775 11.3338 8.99093 11.2998C8.99639 11.2857 9.00633 11.274 9.02522 11.2741C9.1221 11.2744 9.21896 11.2743 9.31673 11.2743ZM8.07917 11.673V11.6714H7.68647H7.68619C7.64731 11.6714 7.628 11.6714 7.61877 11.6811C7.60965 11.6906 7.61034 11.7095 7.61171 11.747V11.747L7.61183 11.7504C7.61258 11.7711 7.6225 11.7805 7.63696 11.7899C7.66507 11.8084 7.69596 11.8208 7.72686 11.8331L7.72687 11.8331C7.73848 11.8378 7.75009 11.8424 7.76155 11.8474C7.79084 11.8601 7.80663 11.8573 7.81837 11.8225C7.84061 11.7565 7.84359 11.7567 7.90934 11.7611L7.91568 11.7615C7.93928 11.763 7.95196 11.7737 7.96256 11.7913L7.99322 11.8426L7.9933 11.8427C8.0073 11.8662 8.02129 11.8897 8.03549 11.9131C8.07358 11.9759 8.1349 11.9796 8.18281 11.9225L8.24502 11.8489L8.24506 11.8489C8.27931 11.8083 8.29646 11.7879 8.31517 11.7864C8.33395 11.7848 8.35429 11.8022 8.39505 11.837L8.39509 11.837C8.39747 11.839 8.3997 11.8413 8.40193 11.8435C8.41017 11.8519 8.41833 11.8602 8.43361 11.8565C8.50023 11.8407 8.54983 11.777 8.55182 11.7115C8.55292 11.6764 8.53864 11.6722 8.50889 11.6725C8.40325 11.6734 8.2976 11.6733 8.19196 11.6731H8.19189L8.07917 11.673ZM8.70287 13.4121H8.66065C8.67687 13.4222 8.68925 13.4188 8.70287 13.4121ZM8.64442 13.4222C8.61959 13.4346 8.59809 13.4425 8.5648 13.4323C8.57568 13.431 8.58523 13.4281 8.5943 13.4254C8.61088 13.4205 8.62586 13.416 8.64442 13.4222ZM11.9127 11.6171L11.9201 11.608L11.9151 11.6044L11.9113 11.6158L11.9028 11.6257C11.8899 11.625 11.884 11.6315 11.8843 11.6441L11.8729 11.647L11.876 11.6518L11.8845 11.6443C11.8936 11.641 11.8997 11.6348 11.903 11.6258L11.9127 11.6171Z" fill="#FFFEFE"/>
<path d="M3.72812 2.77366C3.80293 2.79587 3.8779 2.82871 3.9503 2.86443C4.10673 2.94159 4.25616 3.03197 4.39935 3.13176C4.53642 3.22729 4.66583 3.33266 4.79362 3.44049C4.96989 3.58921 5.13556 3.74896 5.29876 3.91138C5.39552 4.00773 5.48611 4.11025 5.58003 4.20953C5.59909 4.22968 5.60064 4.24291 5.57494 4.26027C5.43516 4.35474 5.3026 4.45896 5.17289 4.56662C5.03325 4.68256 4.90528 4.8111 4.77918 4.94135C4.6232 5.10246 4.48408 5.27759 4.34884 5.45627C4.24032 5.59968 4.1439 5.75078 4.04802 5.90246C4.04323 5.91004 4.04048 5.92053 4.02924 5.92053C4.01549 5.92053 4.01183 5.90851 4.00878 5.89876C3.96451 5.75725 3.91853 5.61621 3.87737 5.47378C3.82771 5.30189 3.77943 5.12948 3.73581 4.95597C3.70084 4.81687 3.67003 4.67669 3.64286 4.53561C3.62234 4.42904 3.60321 4.32231 3.58683 4.21514C3.57208 4.11856 3.56049 4.02147 3.55192 3.92395C3.53958 3.78318 3.52769 3.64229 3.53491 3.50112C3.54656 3.27278 3.57369 3.04692 3.66826 2.83475C3.69358 2.77801 3.69958 2.76974 3.72812 2.77366Z" fill="#F28F1F"/>
<path d="M12.3185 3.20459C12.3331 3.33859 12.3499 3.47307 12.3448 3.60766C12.339 3.75883 12.3294 3.90986 12.3124 4.06083C12.2869 4.28774 12.245 4.51132 12.1964 4.73364C12.1521 4.93675 12.0991 5.13799 12.0419 5.33818C11.9915 5.51466 11.9347 5.68904 11.8826 5.86493C11.8763 5.88628 11.8642 5.92429 11.8571 5.92376C11.8308 5.92184 11.8279 5.89085 11.8153 5.87098C11.73 5.73616 11.6405 5.60412 11.5455 5.47583C11.4553 5.35394 11.3616 5.23495 11.2633 5.11922C11.1395 4.97357 11.0005 4.84338 10.8676 4.70696C10.8377 4.67622 10.7967 4.6574 10.7744 4.61876C10.7827 4.60784 10.7931 4.59795 10.7989 4.5858C10.8571 4.4627 10.9231 4.34382 10.9934 4.2272C11.0996 4.05096 11.2172 3.88257 11.3552 3.72993C11.4999 3.56974 11.6634 3.43119 11.858 3.3333C12.003 3.26037 12.1545 3.2102 12.3185 3.20459Z" fill="#F28B20"/>
<path d="M4.95117 7.75505C4.95974 7.62358 4.9628 7.52234 5.00347 7.42662C5.01976 7.38827 5.03936 7.36979 5.08442 7.36924C5.21714 7.36769 5.33867 7.40958 5.45699 7.46072C5.84604 7.62879 6.19794 7.86118 6.54479 8.10088C6.67911 8.1937 6.79506 8.30792 6.87009 8.4572C6.88951 8.49583 6.90242 8.53634 6.90937 8.57896C6.91727 8.62754 6.9019 8.6512 6.85305 8.66769C6.79543 8.68713 6.73582 8.69378 6.67584 8.69213C6.50796 8.68745 6.34293 8.66128 6.179 8.62514C6.01553 8.58913 5.85514 8.54333 5.69858 8.48436C5.45775 8.39357 5.22612 8.2865 5.0374 8.10456C4.99189 8.06069 4.95835 8.01473 4.95992 7.94594C4.96161 7.87228 4.95343 7.79842 4.95117 7.75505Z" fill="#1F1712"/>
<path d="M11.0823 7.77085C11.0791 7.83232 11.0728 7.89382 11.0737 7.95524C11.0743 8.00265 11.0526 8.03572 11.0232 8.0682C10.9112 8.19176 10.773 8.27874 10.6266 8.35456C10.4064 8.46862 10.1732 8.54838 9.9332 8.60694C9.74667 8.65244 9.55779 8.68681 9.3643 8.68715C9.31275 8.68724 9.26338 8.67735 9.21426 8.6655C9.16214 8.65294 9.1461 8.62455 9.1536 8.5762C9.17784 8.41988 9.27375 8.3069 9.38111 8.202C9.51694 8.06925 9.67998 7.97257 9.83704 7.86858C10.0312 7.74004 10.2289 7.61708 10.4375 7.51288C10.5844 7.43952 10.7334 7.36929 10.8999 7.35463C11.0214 7.34394 11.0109 7.34556 11.0514 7.46896C11.0835 7.56651 11.082 7.66901 11.0823 7.77085Z" fill="#1F1713"/>
<path d="M12.3188 3.20459C12.1549 3.2102 12.0033 3.26037 11.8583 3.3333C11.6637 3.43119 11.5002 3.56974 11.3555 3.72993C11.2175 3.88257 11.0999 4.05096 10.9937 4.2272C10.9234 4.34382 10.8575 4.4627 10.7992 4.5858C10.7935 4.59793 10.783 4.60784 10.7747 4.61876C10.7209 4.594 10.6836 4.54762 10.639 4.51139C10.5318 4.42433 10.4198 4.34389 10.3085 4.26253C10.2788 4.24076 10.2838 4.22821 10.3045 4.20527C10.4405 4.05464 10.58 3.9073 10.7261 3.76659C10.9771 3.52495 11.2393 3.296 11.5267 3.09827C11.7099 2.97222 11.9056 2.86749 12.1128 2.78538C12.1726 2.7617 12.1785 2.7623 12.2043 2.81885C12.2568 2.93353 12.2959 3.05241 12.3103 3.17849C12.3113 3.18739 12.3159 3.19589 12.3188 3.20459Z" fill="#F2991D"/>
<path d="M10.2533 7.06967C10.0517 7.06602 9.88293 7.05985 9.71858 7.01138C9.5656 6.96625 9.50007 6.86891 9.51277 6.70744C9.52662 6.53162 9.62027 6.39979 9.74282 6.28477C9.81205 6.21979 9.88574 6.15847 9.97724 6.12546C10.1345 6.0688 10.2842 6.09479 10.4243 6.17678C10.5996 6.27938 10.7207 6.42468 10.7496 6.63213C10.7661 6.75051 10.7393 6.8608 10.6741 6.96242C10.6277 7.03484 10.5556 7.05227 10.4794 7.0572C10.3934 7.06273 10.3075 7.07355 10.2533 7.06967Z" fill="#FFFEFE"/>
<path d="M5.70453 7.06818C5.59297 7.06939 5.49351 7.06065 5.39383 7.05261C5.30554 7.0455 5.26085 6.98943 5.21797 6.92245C5.15425 6.82293 5.16051 6.71746 5.17351 6.60708C5.20307 6.35614 5.4483 6.1428 5.68916 6.1021C5.82875 6.07853 5.95675 6.11386 6.0698 6.20184C6.19978 6.30297 6.31975 6.4134 6.36727 6.57711C6.39784 6.6824 6.38916 6.79098 6.35016 6.89419C6.32898 6.95031 6.27929 6.98174 6.22564 7.0011C6.13873 7.03244 6.04754 7.04982 5.95579 7.05676C5.86853 7.06334 5.781 7.07339 5.70453 7.06818Z" fill="#FFFEFE"/>
<path d="M11.9488 11.5796C11.9509 11.5534 11.9725 11.5431 11.9915 11.5256C11.9939 11.5474 11.9691 11.5578 11.9767 11.577C11.9767 11.577 11.9756 11.5797 11.9756 11.5797L11.9727 11.5799C11.9647 11.5798 11.9568 11.5797 11.9488 11.5796Z" fill="#F6D9A7"/>
<path d="M11.9489 11.5797C11.9569 11.5797 11.9649 11.5798 11.9729 11.5799C11.9688 11.5899 11.9636 11.5988 11.9518 11.6012C11.9518 11.6012 11.949 11.5979 11.949 11.5979C11.9491 11.5917 11.9492 11.5855 11.9492 11.5794L11.9489 11.5797Z" fill="#FFFEFE"/>
<path d="M9.41494 11.2743C9.38288 11.4071 9.35142 11.5363 9.32074 11.6656C9.31459 11.6915 9.29736 11.6915 9.27612 11.6914C9.20159 11.6912 9.20172 11.6919 9.17474 11.7623C9.12774 11.885 9.08052 12.0075 9.03016 12.1386C8.99904 12.08 8.95129 12.0381 8.95239 11.9698C8.95477 11.822 8.95413 11.6741 8.95721 11.5262C8.95792 11.4927 8.95214 11.4852 8.91709 11.4913C8.60698 11.5454 8.29438 11.5721 7.97963 11.5602C7.78451 11.5527 7.58958 11.5385 7.39754 11.4991C7.37513 11.4945 7.35199 11.4936 7.33115 11.4912C7.33115 11.6366 7.32758 11.7813 7.33259 11.9257C7.33528 12.0038 7.32966 12.0752 7.27019 12.136C7.21885 12.0671 7.18677 11.9867 7.15901 11.9048C7.13843 11.8441 7.11734 11.7828 7.11056 11.7184C7.1056 11.6712 7.07311 11.6753 7.04448 11.6841C7.00098 11.6974 6.98777 11.6843 6.97914 11.6406C6.96869 11.5878 6.95937 11.5349 6.95576 11.4816C6.95314 11.4433 6.94114 11.4149 6.91132 11.3911C6.88738 11.3719 6.86663 11.3488 6.84438 11.3276C6.83127 11.315 6.83415 11.299 6.83648 11.2842C6.83903 11.268 6.85361 11.2747 6.86275 11.2748C6.98907 11.2751 7.11544 11.2763 7.24177 11.2769C7.26535 11.2769 7.28472 11.2806 7.2852 11.31C7.28554 11.3299 7.29928 11.3292 7.31383 11.33C7.49547 11.3398 7.67727 11.3391 7.85906 11.3395C7.87844 11.3396 7.88993 11.3336 7.89937 11.3167C7.92014 11.2794 7.94399 11.2437 7.96451 11.2062C7.98267 11.1731 7.99962 11.1421 8.04653 11.1536C8.06778 11.1588 8.07173 11.1446 8.07166 11.1264C8.07118 11.0094 8.07066 10.8923 8.07182 10.7753C8.0721 10.7496 8.0556 10.7468 8.03844 10.7393C7.86174 10.6628 7.69502 10.5702 7.55953 10.4302C7.44758 10.3145 7.37876 10.1812 7.38877 10.014C7.39364 9.93268 7.38946 9.85078 7.38952 9.76915C7.38966 9.59546 7.50431 9.48062 7.678 9.48053C7.96307 9.48039 8.24814 9.48035 8.53318 9.48053C8.68679 9.48064 8.84233 9.63782 8.83712 9.79137C8.83285 9.91884 8.84494 10.0471 8.82145 10.1737C8.78729 10.358 8.68489 10.4988 8.53835 10.6099C8.46361 10.6667 8.38271 10.7134 8.29312 10.7429C8.27315 10.7495 8.26801 10.7593 8.26815 10.7791C8.26902 10.8946 8.26932 11.0101 8.26801 11.1256C8.26774 11.1507 8.27608 11.1592 8.29945 11.1553C8.3366 11.1489 8.35634 11.1657 8.37323 11.199C8.39731 11.2464 8.41933 11.3067 8.46025 11.3305C8.49962 11.3535 8.56192 11.3375 8.61413 11.3379C8.71583 11.3385 8.81757 11.337 8.91917 11.3398C8.95394 11.3408 8.9775 11.3338 8.99068 11.2998C8.99614 11.2857 9.00608 11.274 9.02498 11.274C9.15425 11.2744 9.28352 11.2743 9.41494 11.2743Z" fill="#1D1919"/>
<path d="M8.0791 11.673C8.22233 11.673 8.36559 11.6738 8.50882 11.6725C8.53857 11.6722 8.55285 11.6764 8.55177 11.7115C8.54978 11.777 8.50016 11.8407 8.43356 11.8565C8.41416 11.8611 8.40623 11.8465 8.39502 11.837C8.31359 11.7675 8.31361 11.7675 8.24498 11.8489C8.22425 11.8735 8.20342 11.8979 8.18276 11.9225C8.13485 11.9796 8.07353 11.9758 8.03542 11.9131C8.01088 11.8727 7.98689 11.8319 7.96249 11.7913C7.95189 11.7737 7.93923 11.763 7.9156 11.7615C7.84368 11.7568 7.84126 11.7545 7.8183 11.8225C7.80658 11.8573 7.79077 11.8601 7.7615 11.8474C7.7195 11.8292 7.67557 11.8153 7.63689 11.7899C7.62242 11.7805 7.61251 11.7711 7.61175 11.7503C7.60892 11.6713 7.60778 11.6714 7.68642 11.6715C7.81729 11.6715 7.94821 11.6715 8.0791 11.6715V11.673Z" fill="#171413"/>
<path d="M8.56467 13.4323C8.59547 13.4286 8.61555 13.4127 8.64427 13.4222C8.61946 13.4346 8.59794 13.4426 8.56467 13.4323Z" fill="#F6D9A7"/>
<path d="M8.70272 13.412C8.68913 13.4187 8.67672 13.4221 8.66052 13.412H8.70272Z" fill="#F6D9A7"/>
<path d="M11.949 11.5793C11.9489 11.5855 11.9488 11.5917 11.9488 11.5979C11.9426 11.5953 11.9314 11.5974 11.9342 11.5861C11.935 11.5828 11.9438 11.5815 11.949 11.5793Z" fill="#F6D9A7"/>
<path d="M11.8842 11.6441C11.8839 11.6315 11.8898 11.625 11.9027 11.6256L11.9029 11.6258C11.8996 11.6348 11.8935 11.641 11.8844 11.6443L11.8842 11.6441Z" fill="#F6D9A7"/>
<path d="M11.8842 11.6443C11.8814 11.6468 11.8786 11.6493 11.8758 11.6519C11.8747 11.6503 11.8737 11.6486 11.8726 11.647C11.8764 11.6461 11.8802 11.6451 11.884 11.6442L11.8842 11.6443Z" fill="#F7DDB0"/>
<path d="M11.7489 11.7764C11.7488 11.7776 11.7491 11.7793 11.7484 11.7798C11.7474 11.7806 11.7454 11.7812 11.7444 11.7807C11.7401 11.7788 11.7403 11.7765 11.7449 11.7752C11.7461 11.7749 11.7475 11.7759 11.7489 11.7764Z" fill="#F7DDB0"/>
<path d="M11.9111 11.6157C11.9124 11.6119 11.9137 11.6081 11.9149 11.6043C11.9166 11.6055 11.9183 11.6067 11.9199 11.6079C11.9174 11.611 11.9149 11.614 11.9124 11.617L11.9111 11.6157Z" fill="#F6D9A7"/>
<path d="M11.9026 11.6256C11.9055 11.6222 11.9085 11.6188 11.9114 11.6154C11.9114 11.6154 11.9127 11.6168 11.9128 11.6168C11.9094 11.6198 11.9061 11.6228 11.9028 11.6258L11.9026 11.6256Z" fill="#F6D9A7"/>
<path d="M11.8559 11.6712C11.8574 11.6692 11.8588 11.6672 11.8604 11.6652C11.8662 11.6704 11.8603 11.671 11.8574 11.6727L11.8559 11.6712Z" fill="#F7DDB0"/>
<path d="M11.8572 11.6726C11.8554 11.6738 11.8535 11.6751 11.8517 11.6763C11.8531 11.6746 11.8544 11.6729 11.8558 11.6711C11.8557 11.6711 11.8572 11.6726 11.8572 11.6726Z" fill="#F7DDB0"/>
<path d="M11.8333 11.6928L11.8344 11.6957L11.8316 11.6955L11.8333 11.6928Z" fill="#F7DDB0"/>
<path d="M11.8085 11.7166C11.8104 11.7132 11.812 11.7084 11.8165 11.7141C11.8166 11.7144 11.8131 11.7175 11.8113 11.7193L11.8085 11.7166Z" fill="#F7DDB0"/>
<path d="M11.8116 11.7192C11.8096 11.7203 11.8076 11.7215 11.8055 11.7226C11.8067 11.7206 11.8078 11.7185 11.8088 11.7165C11.8088 11.7164 11.8116 11.7192 11.8116 11.7192Z" fill="#F7DDB0"/>
<path d="M11.7873 11.7341L11.7863 11.7314L11.7888 11.7317L11.7873 11.7341Z" fill="#F7DDB0"/>
<path d="M11.7594 11.7618L11.7585 11.7591L11.761 11.7594L11.7594 11.7618Z" fill="#F7DDB0"/>
</svg>
