<svg width="16" height="16" viewBox="0 0 16 16" fill="none" xmlns="http://www.w3.org/2000/svg">
<circle cx="8" cy="8" r="8" fill="#3B99FC"/>
<path fill-rule="evenodd" clip-rule="evenodd" d="M11.1497 5.96921C9.41023 4.23247 6.58994 4.23247 4.85044 5.96921L4.62065 6.19862C4.53368 6.28546 4.53368 6.42625 4.62065 6.51309L5.3368 7.2281C5.38029 7.27152 5.4508 7.27152 5.49429 7.2281L5.80281 6.92007C7.01633 5.70848 8.98384 5.70848 10.1974 6.92007L10.4855 7.2077C10.5289 7.25112 10.5994 7.25112 10.6429 7.2077L11.3591 6.49269C11.4461 6.40585 11.4461 6.26506 11.3591 6.17823L11.1497 5.96921ZM13.2682 8.08429L12.6308 7.44793C12.5438 7.36109 12.4028 7.36109 12.3158 7.44793L10.2761 9.48444C10.2543 9.50615 10.2191 9.50615 10.1973 9.48444L8.15753 7.44789L8.15753 7.44788C8.07055 7.36105 7.92954 7.36105 7.84257 7.44789L5.80287 9.48444C5.78112 9.50615 5.74587 9.50615 5.72412 9.48444L3.68432 7.44789C3.59735 7.36105 3.45633 7.36105 3.36936 7.44789L2.73198 8.08425C2.645 8.17109 2.645 8.31188 2.73198 8.39872L5.60603 11.2682C5.69301 11.355 5.83403 11.355 5.921 11.2682L7.96073 9.23167C7.98247 9.20996 8.01773 9.20996 8.03947 9.23167L10.0792 11.2682C10.1662 11.355 10.3072 11.355 10.3942 11.2682L13.2682 8.39875C13.3552 8.31191 13.3552 8.17113 13.2682 8.08429Z" fill="white"/>
</svg>
