<svg width="16" height="16" viewBox="0 0 16 16" fill="none" xmlns="http://www.w3.org/2000/svg">
<circle cx="8" cy="8" r="8" fill="#2081E2"/>
<path d="M3.61476 8.66285L3.65092 8.60581L5.83126 5.18272C5.86312 5.1326 5.93803 5.13779 5.96214 5.19222C6.3264 6.01148 6.6407 7.03038 6.49345 7.6647C6.43059 7.92569 6.25837 8.27914 6.06461 8.60581C6.03965 8.65335 6.01209 8.70001 5.98281 8.74495C5.96903 8.76569 5.94578 8.77779 5.9208 8.77779H3.67847C3.6182 8.77779 3.58289 8.71211 3.61476 8.66285Z" fill="white"/>
<path d="M13.3333 9.29887V9.84072C13.3333 9.87183 13.3144 9.89949 13.2868 9.91158C13.1181 9.98417 12.5403 10.2503 12.3 10.5857C11.6869 11.4421 11.2185 12.6666 10.1713 12.6666H5.80291C4.25465 12.6666 3 11.4032 3 9.84417V9.79406C3 9.75257 3.03358 9.71887 3.07491 9.71887H5.51015C5.55836 9.71887 5.59366 9.76381 5.58937 9.81133C5.57214 9.97034 5.60142 10.1328 5.67633 10.2806C5.821 10.5753 6.12067 10.7594 6.44444 10.7594H7.65V9.8148H6.45822C6.39708 9.8148 6.36093 9.74392 6.39623 9.69381C6.40914 9.67392 6.42379 9.6532 6.43928 9.62986C6.55209 9.46912 6.71311 9.21937 6.87328 8.93505C6.98264 8.7432 7.08855 8.53838 7.17381 8.3327C7.19104 8.29554 7.2048 8.2575 7.21858 8.22034C7.24183 8.15467 7.26595 8.09331 7.28317 8.03196C7.3004 7.98009 7.31416 7.92566 7.32794 7.87467C7.36842 7.7001 7.38564 7.51516 7.38564 7.32331C7.38564 7.24813 7.3822 7.16948 7.37531 7.0943C7.37186 7.01221 7.36153 6.93009 7.35119 6.848C7.3443 6.77541 7.33139 6.70368 7.31761 6.62849C7.3004 6.51874 7.27628 6.40986 7.24872 6.3001L7.23925 6.25863C7.21858 6.18343 7.20136 6.11171 7.17726 6.03653C7.10922 5.80059 7.03087 5.57072 6.94819 5.35554C6.91806 5.26998 6.88361 5.18788 6.84916 5.10579C6.79837 4.98221 6.74669 4.86986 6.69933 4.76356C6.67523 4.71516 6.65456 4.67109 6.63389 4.62615C6.61064 4.57516 6.58654 4.52417 6.56242 4.47579C6.5452 4.43863 6.52539 4.40406 6.51161 4.36948L6.36436 4.0964C6.34369 4.05924 6.37814 4.01516 6.41861 4.0264L7.34001 4.27701H7.34259C7.3443 4.27701 7.34517 4.27788 7.34603 4.27788L7.46744 4.31158L7.60092 4.34962L7.65 4.36343V3.81381C7.65 3.54849 7.86183 3.33331 8.12362 3.33331C8.2545 3.33331 8.37333 3.38689 8.45859 3.47417C8.54383 3.56146 8.59722 3.68072 8.59722 3.81381V4.62962L8.6954 4.65726C8.70314 4.65986 8.71089 4.66331 8.71778 4.66849C8.7419 4.68665 8.77633 4.71343 8.82025 4.74628C8.8547 4.77392 8.89173 4.80764 8.9365 4.84221C9.02519 4.91392 9.13111 5.0064 9.24736 5.1127C9.27836 5.13948 9.3085 5.16714 9.33606 5.1948C9.4859 5.3348 9.65381 5.49899 9.81398 5.68047C9.85875 5.73146 9.90267 5.78331 9.94745 5.83775C9.99222 5.89307 10.0396 5.9475 10.0809 6.00196C10.1352 6.07455 10.1937 6.14973 10.2445 6.22838C10.2686 6.26554 10.2962 6.30356 10.3194 6.34072C10.3849 6.4401 10.4426 6.54295 10.4977 6.64579C10.521 6.69331 10.5451 6.74516 10.5657 6.79615C10.6269 6.93356 10.6751 7.07356 10.7061 7.21356C10.7156 7.24381 10.7224 7.27665 10.7259 7.30604V7.31295C10.7362 7.35442 10.7397 7.39849 10.7431 7.44343C10.7569 7.58689 10.75 7.73034 10.719 7.87467C10.7061 7.93604 10.6889 7.99392 10.6682 8.05529C10.6475 8.11406 10.6269 8.17541 10.6002 8.23331C10.5485 8.35343 10.4874 8.47356 10.415 8.5859C10.3918 8.62739 10.3642 8.67147 10.3367 8.71295C10.3065 8.75701 10.2755 8.79849 10.248 8.83912C10.2101 8.89097 10.1696 8.94541 10.1283 8.99381C10.0913 9.0448 10.0534 9.09579 10.012 9.14072C9.95434 9.20899 9.89922 9.27381 9.84152 9.33604C9.80709 9.37665 9.77006 9.41813 9.73216 9.45529C9.69515 9.49676 9.65725 9.53392 9.6228 9.56849C9.56512 9.6264 9.51689 9.67133 9.47641 9.70849L9.3817 9.79579C9.36792 9.80788 9.34984 9.8148 9.33089 9.8148H8.59722V10.7594H9.52033C9.727 10.7594 9.92334 10.6859 10.0818 10.5511C10.136 10.5036 10.3728 10.2979 10.6527 9.98764C10.6622 9.97726 10.6742 9.96948 10.688 9.96604L13.2378 9.22628C13.2851 9.21246 13.3333 9.24874 13.3333 9.29887Z" fill="white"/>
</svg>
