<svg width="16" height="16" viewBox="0 0 16 16" fill="none" xmlns="http://www.w3.org/2000/svg">
<circle cx="8" cy="8" r="8" fill="url(#paint0_linear_859_10069)"/>
<path fill-rule="evenodd" clip-rule="evenodd" d="M7.97627 13.3125C6.41932 13.3113 5.16517 12.9377 4.28889 12.2666C3.40209 11.5875 2.93164 10.6238 2.93164 9.53334C2.93164 8.48261 3.40106 7.72494 3.93219 7.21281C4.34844 6.81146 4.80777 6.55441 5.12761 6.40656C5.05529 6.18459 4.96504 5.89399 4.88431 5.59386C4.77629 5.19223 4.67031 4.72101 4.67031 4.37571C4.67031 3.96699 4.75942 3.55653 4.99969 3.23758C5.25354 2.90061 5.63569 2.72009 6.09544 2.72009C6.45474 2.72009 6.75981 2.85336 6.99862 3.08329C7.22691 3.30306 7.37884 3.59494 7.48374 3.89919C7.66807 4.43381 7.73986 5.10549 7.75999 5.77579H8.20036C8.22049 5.10549 8.29226 4.43381 8.47661 3.89919C8.58151 3.59494 8.73344 3.30306 8.96172 3.08329C9.20054 2.85336 9.50559 2.72009 9.86491 2.72009C10.3247 2.72009 10.7068 2.90061 10.9607 3.23758C11.2009 3.55653 11.29 3.96699 11.29 4.37571C11.29 4.72101 11.1841 5.19223 11.076 5.59386C10.9953 5.89399 10.9051 6.18459 10.8327 6.40656C11.1526 6.55441 11.6119 6.81146 12.0281 7.21281C12.5593 7.72494 13.0287 8.48261 13.0287 9.53334C13.0287 10.6238 12.5583 11.5875 11.6715 12.2666C10.7952 12.9377 9.54102 13.3113 7.98407 13.3125H7.97627Z" fill="#633001"/>
<path d="M6.09554 3.10876C5.42215 3.10876 5.11219 3.61625 5.11219 4.3181C5.11219 4.87595 5.47235 5.9932 5.62012 6.42813C5.65335 6.52595 5.60112 6.63313 5.50589 6.67106C4.9662 6.88603 3.37354 7.67313 3.37354 9.47573C3.37354 11.3746 4.99203 12.8063 7.9767 12.8086C7.97789 12.8086 7.97907 12.8086 7.98027 12.8086C7.98145 12.8086 7.98264 12.8086 7.98384 12.8086C10.9685 12.8063 12.587 11.3746 12.587 9.47573C12.587 7.67313 10.9943 6.88603 10.4547 6.67106C10.3594 6.63313 10.3072 6.52595 10.3404 6.42813C10.4882 5.9932 10.8483 4.87595 10.8483 4.3181C10.8483 3.61625 10.5384 3.10876 9.865 3.10876C8.8957 3.10876 8.65409 4.49581 8.63685 5.98446C8.6357 6.08385 8.55617 6.16448 8.45779 6.16448H7.50275C7.40435 6.16448 7.32484 6.08385 7.32369 5.98446C7.30645 4.49581 7.06482 3.10876 6.09554 3.10876Z" fill="#D1884F"/>
<path d="M7.98384 12.2003C5.79085 12.2003 3.37732 11.0145 3.37354 9.47937C3.37354 9.48177 3.37354 9.48417 3.37354 9.48655C3.37354 11.3869 4.99462 12.8194 7.98384 12.8194C10.973 12.8194 12.5941 11.3869 12.5941 9.48655C12.5941 9.48417 12.5941 9.48177 12.5941 9.47937C12.5903 11.0145 10.1768 12.2003 7.98384 12.2003Z" fill="#FEDC90"/>
<path d="M6.76523 9.00782C6.76523 9.5261 6.52276 9.79604 6.22368 9.79604C5.92458 9.79604 5.68213 9.5261 5.68213 9.00782C5.68213 8.48954 5.92458 8.2196 6.22368 8.2196C6.52276 8.2196 6.76523 8.48954 6.76523 9.00782Z" fill="#633001"/>
<path d="M10.2852 9.00782C10.2852 9.5261 10.0428 9.79604 9.7437 9.79604C9.44461 9.79604 9.20215 9.5261 9.20215 9.00782C9.20215 8.48954 9.44461 8.2196 9.7437 8.2196C10.0428 8.2196 10.2852 8.48954 10.2852 9.00782Z" fill="#633001"/>
<defs>
<linearGradient id="paint0_linear_859_10069" x1="0" y1="0" x2="0" y2="16" gradientUnits="userSpaceOnUse">
<stop stop-color="#53DEE9"/>
<stop offset="1" stop-color="#1FC7D4"/>
</linearGradient>
</defs>
</svg>
