<svg width="16" height="16" viewBox="0 0 16 16" fill="none" xmlns="http://www.w3.org/2000/svg">
<circle cx="8" cy="8" r="8" fill="black"/>
<path fill-rule="evenodd" clip-rule="evenodd" d="M11.3812 5.35904C11.3299 5.38174 11.2745 5.39349 11.2186 5.39354H2.87134C2.83153 5.39352 2.79259 5.38174 2.75928 5.35962C2.72598 5.33752 2.69976 5.30605 2.68384 5.26908C2.66791 5.2321 2.66297 5.19123 2.66963 5.15146C2.67628 5.11168 2.69423 5.07473 2.72129 5.04514L4.48017 3.13195C4.51826 3.0904 4.56438 3.05724 4.61567 3.03454C4.66696 3.01185 4.72232 3.0001 4.77828 3.00004H13.1255C13.1657 2.9992 13.2052 3.01042 13.2391 3.03229C13.273 3.05416 13.2998 3.0857 13.316 3.12294C13.3323 3.16018 13.3373 3.20147 13.3304 3.24159C13.3236 3.28172 13.3052 3.31889 13.2776 3.34845L11.5167 5.26163C11.4786 5.30318 11.4325 5.33635 11.3812 5.35904ZM11.5167 6.76801C11.4785 6.72664 11.4323 6.69362 11.381 6.67093C11.3298 6.64825 11.2745 6.6364 11.2186 6.63611H2.87134C2.83153 6.63613 2.79259 6.64791 2.75928 6.67002C2.72598 6.69213 2.69976 6.72359 2.68384 6.76057C2.66791 6.79754 2.66297 6.83842 2.66963 6.87819C2.67628 6.91796 2.69423 6.95492 2.72129 6.98451L4.48017 8.89871C4.5184 8.94007 4.56455 8.9731 4.61581 8.99579C4.66707 9.01846 4.72236 9.03031 4.77828 9.03061H13.1255C13.1653 9.03039 13.204 9.01846 13.2372 8.99629C13.2704 8.97411 13.2964 8.94263 13.3122 8.90569C13.328 8.86876 13.3329 8.82796 13.3261 8.78828C13.3195 8.74859 13.3016 8.71174 13.2746 8.68221L11.5167 6.76801ZM13.2776 10.6216L11.5167 12.5348C11.4786 12.5763 11.4325 12.6095 11.3812 12.6322C11.3299 12.6549 11.2745 12.6666 11.2186 12.6667H2.87134C2.83153 12.6666 2.79259 12.6549 2.75928 12.6328C2.72598 12.6107 2.69976 12.5792 2.68384 12.5422C2.66791 12.5052 2.66297 12.4644 2.66963 12.4246C2.67628 12.3848 2.69423 12.3479 2.72129 12.3183L4.48017 10.4051C4.51826 10.3635 4.56438 10.3304 4.61567 10.3077C4.66696 10.285 4.72232 10.2732 4.77828 10.2732H13.1255C13.1657 10.2723 13.2052 10.2836 13.2391 10.3054C13.273 10.3273 13.2998 10.3588 13.316 10.3961C13.3323 10.4333 13.3373 10.4746 13.3304 10.5147C13.3236 10.5549 13.3052 10.592 13.2776 10.6216Z" fill="url(#paint0_linear_859_10053)"/>
<defs>
<linearGradient id="paint0_linear_859_10053" x1="9.08359" y1="16.8633" x2="16.805" y2="6.12303" gradientUnits="userSpaceOnUse">
<stop offset="0.08" stop-color="#9945FF"/>
<stop offset="0.3" stop-color="#8752F3"/>
<stop offset="0.5" stop-color="#5497D5"/>
<stop offset="0.6" stop-color="#43B4CA"/>
<stop offset="0.72" stop-color="#28E0B9"/>
<stop offset="0.97" stop-color="#19FB9B"/>
</linearGradient>
</defs>
</svg>
