<svg width="16" height="16" viewBox="0 0 16 16" fill="none" xmlns="http://www.w3.org/2000/svg">
<circle cx="8" cy="8" r="8" fill="#120C18"/>
<path d="M10.2244 6.36393L10.8492 7.12782C10.9207 7.21362 10.9841 7.28419 11.0098 7.32433C11.1966 7.51756 11.3014 7.77871 11.3012 8.05085C11.2837 8.37191 11.0826 8.59056 10.8964 8.82443L10.4592 9.3586L10.2312 9.63537C10.223 9.64491 10.2177 9.6567 10.216 9.6693C10.2143 9.68188 10.2162 9.6947 10.2215 9.70618C10.2268 9.71767 10.2353 9.7273 10.2459 9.7339C10.2565 9.74049 10.2687 9.74376 10.2811 9.74331H12.5602C12.9083 9.74331 13.3468 10.0478 13.3212 10.51C13.3205 10.72 13.2388 10.9213 13.094 11.0699C12.9491 11.2184 12.7529 11.3022 12.548 11.3029H8.979C8.74421 11.3029 8.11272 11.3292 7.93595 10.7687C7.89836 10.6516 7.89322 10.5261 7.92111 10.4062C7.97249 10.2288 8.05378 10.0621 8.16129 9.91352C8.34076 9.63675 8.53506 9.35998 8.72667 9.09151C8.9736 8.74001 9.22728 8.39958 9.47691 8.04116C9.48577 8.02949 9.49059 8.01513 9.49059 8.00034C9.49059 7.98555 9.48577 7.97119 9.47691 7.95952L8.57014 6.85243C8.56423 6.84441 8.55658 6.8379 8.5478 6.83342C8.53903 6.82894 8.52935 6.82661 8.51954 6.82661C8.50973 6.82661 8.50006 6.82894 8.49129 6.83342C8.4825 6.8379 8.47485 6.84441 8.46894 6.85243C8.22606 7.18871 7.16277 8.67774 6.93608 8.97942C6.70939 9.2811 6.15076 9.2977 5.84176 8.97942L4.4236 7.51946C4.41454 7.51013 4.40298 7.50377 4.3904 7.5012C4.37782 7.49862 4.36477 7.49994 4.35292 7.50498C4.34106 7.51002 4.33093 7.51856 4.32381 7.52951C4.3167 7.54046 4.31293 7.55334 4.31295 7.5665V10.3743C4.31629 10.5736 4.25876 10.7689 4.14841 10.933C4.03808 11.097 3.88046 11.2215 3.69765 11.2891C3.58084 11.3308 3.45601 11.3432 3.33354 11.3254C3.21109 11.3076 3.09457 11.26 2.99369 11.1866C2.89282 11.1132 2.81051 11.0161 2.75363 10.9035C2.69677 10.7908 2.66698 10.6659 2.66675 10.539V5.49071C2.67488 5.30878 2.73871 5.13411 2.84917 4.99152C2.95962 4.84892 3.11109 4.74565 3.28205 4.69638C3.4287 4.65632 3.58306 4.65672 3.72951 4.69755C3.87595 4.73837 4.00927 4.81818 4.11595 4.92888L6.29649 7.16795C6.30302 7.17475 6.31092 7.18 6.31965 7.18332C6.32837 7.18663 6.3377 7.18795 6.34697 7.18715C6.35624 7.18636 6.36523 7.18348 6.3733 7.17874C6.38137 7.17398 6.3883 7.16746 6.39365 7.15964L7.9427 4.9607C8.01428 4.87143 8.10403 4.7993 8.20566 4.74933C8.30728 4.69937 8.41833 4.6728 8.53101 4.67147H12.5602C12.6704 4.67167 12.7794 4.69599 12.8797 4.74283C12.9801 4.78969 13.0696 4.85798 13.1421 4.94313C13.2147 5.02828 13.2687 5.12834 13.3005 5.23662C13.3323 5.3449 13.3412 5.45889 13.3266 5.57098C13.2982 5.76542 13.202 5.94271 13.0559 6.06995C12.9097 6.19718 12.7235 6.26575 12.5318 6.26291H10.2757C10.2644 6.2632 10.2533 6.26659 10.2437 6.27274C10.2341 6.27889 10.2262 6.28759 10.221 6.29789C10.2158 6.30821 10.2133 6.31978 10.2139 6.3314C10.2145 6.34301 10.2182 6.35424 10.2244 6.36393Z" fill="url(#paint0_linear_859_10056)"/>
<defs>
<linearGradient id="paint0_linear_859_10056" x1="-2.66658" y1="6.33329" x2="-0.294106" y2="13.9252" gradientUnits="userSpaceOnUse">
<stop stop-color="#7A00CC"/>
<stop offset="1" stop-color="#F72C87"/>
</linearGradient>
</defs>
</svg>
