<svg width="16" height="16" viewBox="0 0 16 16" fill="none" xmlns="http://www.w3.org/2000/svg">
<circle cx="8" cy="8" r="8" fill="#F3F5FA"/>
<path d="M4.87151 8.84349L5.15323 6.73011L2.70581 5.03765L4.94194 5.7918L5.47015 4.98503L7.39816 3.79242L11.6503 6.12503L11.8704 9.68534L9.97759 12.3073L8.48101 12.5353L9.25573 11.1235V9.76426L8.6923 8.70319L8.12006 8.32611L7.23969 9.22934V10.1852L6.55301 10.8254L5.68144 10.9306L5.29409 11.1498L4.66022 10.9481L4.39611 10.001L4.87151 9.33457V8.84349Z" fill="white"/>
<path d="M8.78023 5.02009C8.31363 4.92362 7.80302 4.94993 7.80302 4.94993C7.80302 4.94993 7.63575 5.72162 6.59692 5.92332C6.60573 5.92332 7.97029 6.38808 8.78023 5.02009Z" fill="#94A6C3"/>
<path d="M9.203 12.0179C9.76646 11.5795 10.189 10.9744 10.3827 10.2904C10.3915 10.2641 10.4708 10.2203 10.5236 10.1852C10.6116 10.1326 10.6997 10.0887 10.7172 10.0186C10.7525 9.81686 10.77 9.6064 10.77 9.39594C10.77 9.31702 10.6908 9.23809 10.6116 9.15917C10.5499 9.10655 10.4883 9.04517 10.4883 9.00132C10.4003 8.20332 10.0305 7.45794 9.4407 6.91425L9.37907 6.97563C9.95134 7.51055 10.3211 8.2384 10.4003 9.01009C10.4091 9.08024 10.4795 9.1504 10.5499 9.22055C10.6116 9.27316 10.682 9.35209 10.682 9.38717C10.682 9.58886 10.6644 9.79055 10.6292 9.99224C10.6204 10.0273 10.5411 10.0624 10.4795 10.0975C10.3915 10.1413 10.3122 10.1852 10.2947 10.2554C10.0833 11.0007 9.59916 11.6496 8.9565 12.0705C9.07095 11.825 9.4319 11.027 9.6256 10.6236L9.59037 9.32579L8.4723 8.24717L7.83843 8.33486L7.14295 9.45732C7.14295 9.45732 7.46868 9.86948 7.01089 10.3518C6.5619 10.8253 6.20976 10.9306 6.20976 10.9306L5.88402 10.7551C5.98087 10.6324 6.17455 10.4483 6.32421 10.3255C6.57951 10.115 6.83482 10.0975 6.83482 9.86948C6.84362 9.39594 6.33301 9.52748 6.33301 9.52748L6.14813 9.70286L6.0689 10.3518L5.68154 10.8341L5.63753 10.8253L5.00366 10.685C5.00366 10.685 5.39102 10.4833 5.45264 10.2554C5.51427 10.0361 5.32939 9.30825 5.32059 9.26439C5.32939 9.27316 5.50546 9.42224 5.5847 9.66778C5.72556 9.28193 5.91044 8.91363 5.96326 8.87855C6.01608 8.84347 6.72917 8.4664 6.72917 8.4664L6.49147 9.08901L6.66755 8.99255L7.09013 7.95778C7.09013 7.95778 7.5039 7.75609 7.81203 7.75609C8.36666 7.74732 9.18539 7.07209 8.81564 5.86194C8.92128 5.90578 10.7525 6.81778 11.0693 8.60671C11.307 9.98347 10.5236 11.2725 9.203 12.0179Z" fill="#94A6C3"/>
<path d="M7.10772 5.21303C7.3102 4.97626 7.23096 4.62549 7.23096 4.62549L6.64112 5.49364C6.63232 5.49364 6.85241 5.50241 7.10772 5.21303Z" fill="#1B314F"/>
<path d="M5.12674 9.95721L5.19717 9.60645C5.19717 9.60645 4.90665 10.1151 4.88023 10.1852C4.85382 10.2641 4.89784 10.4044 5.01229 10.3957C5.12674 10.3869 5.2676 10.2203 5.2676 10.0975C5.2676 9.93967 5.12674 9.95721 5.12674 9.95721Z" fill="#1B314F"/>
<path fill-rule="evenodd" clip-rule="evenodd" d="M10.3562 4.37997C10.3562 4.37997 10.7964 4.39751 11.2542 4.45012C10.2242 3.64335 9.24694 3.40658 8.45461 3.40658C7.37064 3.40658 6.63388 3.84753 6.58046 3.8795L6.57943 3.88012L6.92277 3.33643C6.92277 3.33643 5.5494 3.20489 5.0652 4.65181C4.94195 4.34488 4.8275 3.89766 4.8275 3.89766C4.8275 3.89766 4.11441 4.52027 4.44895 5.55504C3.63021 5.25688 2.45932 4.84473 2.4153 4.83596C2.35368 4.82719 2.33607 4.8535 2.33607 4.8535C2.33607 4.8535 2.31846 4.87981 2.37128 4.92366C2.46812 5.00258 4.31689 6.36181 4.72186 6.62489C4.63382 6.94058 4.63382 7.08965 4.72186 7.23873C4.84511 7.44042 4.85391 7.54566 4.8363 7.69474C4.8187 7.84381 4.66023 9.13288 4.62502 9.29073C4.6108 9.35445 4.54209 9.48388 4.46634 9.62656L4.46633 9.62656L4.46633 9.62657C4.35442 9.83736 4.22716 10.0771 4.23766 10.1764C4.25527 10.343 4.48416 11.0534 4.68664 11.1322C4.8363 11.1848 5.20606 11.2989 5.45256 11.2989C5.5406 11.2989 5.61983 11.2814 5.65505 11.2463C5.80471 11.1147 5.84873 11.0884 5.95437 11.0884H5.98078C6.00095 11.0884 6.02296 11.0902 6.04681 11.0923C6.07504 11.0946 6.10585 11.0972 6.13925 11.0972C6.28011 11.0972 6.46498 11.0709 6.59703 10.9481C6.68829 10.8572 6.8108 10.7507 6.92592 10.6507L6.92597 10.6507L6.92598 10.6507L6.92598 10.6507C7.05518 10.5384 7.17504 10.4343 7.2309 10.3693C7.36295 10.2027 7.43339 9.97473 7.39817 9.74673C7.37176 9.53627 7.48621 9.35212 7.61826 9.16796C7.78553 8.94873 8.09366 8.55411 8.09366 8.55411C8.70111 9.01012 9.07967 9.70289 9.07967 10.4746C9.07967 11.8426 7.88237 12.9475 6.40336 12.9475C6.17446 12.9475 5.95437 12.9212 5.73428 12.8685C6.41216 13.1054 6.9844 13.1842 7.45099 13.1842C8.4458 13.1842 8.97403 12.8248 8.97403 12.8248C8.97403 12.8248 8.78914 13.0615 8.48982 13.3333H8.49862C10.1449 13.1054 10.946 11.7549 10.946 11.7549C10.946 11.7549 10.8844 12.1933 10.8052 12.4915C12.9414 10.8935 12.6448 8.9041 12.6201 8.7387L12.6188 8.7295C12.6296 8.74574 12.7176 8.85219 12.8103 8.9643L12.8104 8.96443L12.8106 8.96456L12.8108 8.96491L12.8109 8.96498C12.8682 9.03428 12.9272 9.10567 12.9709 9.15919C13.3231 5.54627 10.3562 4.37997 10.3562 4.37997ZM6.77185 10.3513L6.77182 10.3513L6.77173 10.3514L6.7713 10.3518C6.74445 10.376 6.71801 10.3999 6.69388 10.4219C6.65721 10.4554 6.61947 10.4889 6.58216 10.522L6.58213 10.522C6.51194 10.5843 6.44322 10.6453 6.38575 10.7026C6.35054 10.7377 6.28011 10.7552 6.17446 10.7552H6.07762H6.0248H5.98958H5.91035C6.0424 10.5798 6.42977 10.1764 6.56182 10.0887C6.72029 9.9835 6.79952 9.87827 6.70268 9.69411C6.60584 9.50996 6.35054 9.55381 6.35054 9.55381C6.35054 9.55381 6.5002 9.49242 6.63225 9.49242C6.46498 9.44857 6.25369 9.49242 6.15686 9.58889C6.08642 9.65319 6.07077 9.82663 6.05512 10.0001C6.0473 10.0868 6.03947 10.1735 6.0248 10.2465C5.98537 10.4508 5.86117 10.5636 5.67118 10.7361C5.64908 10.7562 5.62608 10.7771 5.60222 10.799C5.47897 10.9131 5.39094 10.9481 5.32051 10.9481C5.17085 10.9218 4.99477 10.878 4.87152 10.8341C4.78348 10.7201 4.65143 10.343 4.61621 10.1852C4.63522 10.1221 4.69524 10.0091 4.74709 9.91142C4.76731 9.87335 4.78628 9.83763 4.80109 9.80811L4.81578 9.78008C4.91246 9.59566 4.96919 9.48745 4.98597 9.38719C5.02119 9.23812 5.13563 8.31735 5.17965 7.9315C5.2941 8.08058 5.45256 8.32612 5.41735 8.48396C5.67266 8.12442 5.48778 7.77365 5.39974 7.63334C5.32051 7.49304 5.21486 7.21242 5.3029 6.91427C5.39094 6.61612 5.70787 5.79181 5.70787 5.79181C5.70787 5.79181 5.81352 5.97596 5.96317 5.94089C6.11283 5.90581 7.31894 4.09935 7.31894 4.09935C7.31894 4.09935 7.64468 4.80966 7.30133 5.32704C6.94918 5.84443 6.60584 5.94089 6.60584 5.94089C6.60584 5.94089 7.09004 6.02858 7.53903 5.70412C7.7239 6.13381 7.89998 6.58104 7.90878 6.64243L7.87041 6.73326C7.7721 6.96652 7.52425 7.55457 7.49501 7.59827C7.4774 7.61581 7.35415 7.65088 7.26612 7.66842C7.11645 7.71227 7.02841 7.73858 6.9932 7.76489C6.93158 7.8175 6.64986 8.58919 6.5178 8.96627C6.35934 9.01012 6.20087 9.0978 6.08643 9.27319C6.14805 9.22935 6.34173 9.20304 6.48259 9.1855C6.60584 9.17673 6.9844 9.37842 7.08124 9.7555V9.77304C7.09884 9.91335 7.05483 10.0449 6.9844 10.1501C6.95728 10.1839 6.86233 10.2696 6.77185 10.3513ZM6.23184 9.94212C6.22704 10.027 6.21922 10.1656 6.15686 10.2554C6.16288 10.2494 6.18127 10.23 6.20533 10.2047C6.25159 10.156 6.3188 10.0853 6.35934 10.0449C6.38675 10.0203 6.41758 10.0008 6.44704 9.98223C6.51218 9.94108 6.57063 9.90416 6.57063 9.82565C6.57063 9.70289 6.40336 9.67657 6.33293 9.69412C6.2625 9.71166 6.24489 9.82565 6.23608 9.88704C6.23421 9.90011 6.23313 9.91915 6.23184 9.94212ZM9.66953 8.58042C9.75757 8.13319 9.76636 7.74735 9.73992 7.43165C10.0833 7.88766 10.2946 8.44012 10.3562 9.01012C10.365 9.08027 10.4354 9.15042 10.5059 9.22058C10.5675 9.27319 10.6379 9.34335 10.6379 9.38719C10.6379 9.58889 10.6203 9.79058 10.5851 9.99227C10.5767 10.0172 10.5052 10.0578 10.4453 10.0919L10.4354 10.0975C10.3474 10.1413 10.2682 10.1852 10.2505 10.2554C10.0569 10.9306 9.64308 11.5269 9.08847 11.9478C9.90722 11.0972 10.3034 9.69411 9.66953 8.58042ZM10.321 10.2816C10.1273 10.9744 9.68711 11.5883 9.11488 12.0267C10.3298 11.448 11.1662 10.2115 11.1662 8.79089C11.1662 6.94058 9.75757 5.41473 7.9528 5.22181C7.89117 5.31827 7.82955 5.40596 7.76792 5.47612C7.89998 5.80058 8.24332 6.65119 8.24332 6.69504C8.24332 6.74765 8.07605 7.17735 8.05845 7.19489C8.04084 7.20366 7.83835 7.22119 7.75912 7.22119C7.67108 7.43165 7.58304 7.63334 7.56544 7.65965C7.53903 7.69473 7.45979 7.72104 7.29252 7.76489C7.27465 7.77023 7.25497 7.77593 7.2348 7.78177C7.1556 7.80471 7.06886 7.82983 7.05483 7.84381C7.0108 7.89643 6.77311 8.51904 6.61464 8.9575C6.82593 8.92242 7.0108 8.96627 7.05483 8.98381C7.39817 8.33488 7.67108 7.98411 7.74151 7.98411C7.74899 7.98318 7.76511 7.98374 7.78834 7.98453C7.98384 7.99124 8.68288 8.01522 8.97403 7.31766C9.28619 6.55755 8.84673 5.90804 8.81664 5.86358C8.81619 5.8629 8.81582 5.86236 8.81556 5.86197C8.81584 5.86211 8.81631 5.86233 8.81695 5.86264C8.85586 5.88145 9.54032 6.21226 9.71355 7.2475C10.1097 7.74735 10.365 8.35242 10.4354 8.99258C10.4354 9.02535 10.4748 9.06792 10.5131 9.10931C10.526 9.12329 10.5388 9.13714 10.5499 9.15042L10.5501 9.15065C10.6292 9.2295 10.7083 9.30835 10.7083 9.38719C10.7083 9.59765 10.6908 9.80811 10.6555 10.0098C10.6379 10.08 10.5499 10.1326 10.4619 10.1764C10.4498 10.1844 10.4364 10.1929 10.4228 10.2015C10.3766 10.2306 10.3278 10.2614 10.321 10.2816Z" fill="#1B314F"/>
<path d="M6.7732 7.29137C6.94048 7.09844 6.85244 6.73891 6.54431 6.67752C6.62354 6.49336 6.73799 6.12506 6.73799 6.12506C6.73799 6.12506 5.84001 7.52813 5.76078 7.55444C5.68155 7.58075 5.60232 7.27383 5.60232 7.27383C5.43505 7.91398 5.88404 8.00167 5.93686 7.79998C6.18336 7.7386 6.60593 7.47552 6.7732 7.29137Z" fill="#1B314F"/>
<path d="M6.00708 7.63337L6.46487 6.85291C6.46487 6.85291 6.72897 6.98444 6.59692 7.1949C6.42966 7.44045 6.00708 7.63337 6.00708 7.63337Z" fill="#FFD923"/>
<path d="M11.668 11.2463C11.5359 11.4217 11.3863 11.6058 11.2102 11.7811C12.3459 9.60641 11.2631 7.61579 11.2191 7.53687C11.2983 7.61579 11.3775 7.70348 11.448 7.7824C12.3195 8.74702 12.4251 10.1939 11.668 11.2463Z" fill="#D82122"/>
<path d="M12.7245 8.44889C12.3283 7.38781 11.7648 6.48459 10.5236 5.66904C9.32625 4.87981 8.04092 4.9412 7.97049 4.94996C7.96169 4.94996 7.95288 4.94996 7.95288 4.94996C7.9969 4.93243 8.04092 4.92366 8.08493 4.91489C8.35785 4.8272 8.70999 4.75704 9.06214 4.7132C9.99536 4.58166 10.9373 4.89735 11.58 5.57259C11.5888 5.58135 11.5888 5.58135 11.5976 5.59012C12.3283 6.36181 12.7068 7.32643 12.7245 8.44889Z" fill="#D82122"/>
<path d="M10.2418 4.10811C8.93002 3.86258 8.08487 3.98535 7.47742 4.21335C7.45981 4.1432 7.39819 4.00289 7.34537 3.88889C7.16049 4.10811 6.96681 4.3712 6.84356 4.53781C6.50902 4.76581 6.36816 4.98504 6.36816 4.98504C6.56184 4.32735 7.12528 3.83627 7.81196 3.7135C8.00564 3.67843 8.21693 3.66089 8.44582 3.66089C9.05328 3.66966 9.66069 3.81874 10.2418 4.10811Z" fill="#D82122"/>
<path d="M5.39097 5.79186C4.36095 5.75679 4.70429 4.56417 4.7219 4.49402C4.7219 4.50279 4.79233 5.43233 5.39097 5.79186Z" fill="#D82122"/>
<path d="M6.40343 3.64337C5.61111 4.11692 5.76957 5.24814 5.76957 5.24814C5.01245 4.09938 6.3418 3.66968 6.40343 3.64337Z" fill="#D82122"/>
<path d="M5.10053 6.10747C5.15335 6.15132 5.20617 6.23025 5.14454 6.34424C5.10933 6.40563 5.0565 6.39686 4.97727 6.36178C4.87163 6.30917 4.23777 5.94086 3.66553 5.56378C4.317 5.79178 4.97727 6.03732 5.08292 6.08994C5.08292 6.08994 5.09172 6.09871 5.10053 6.10747Z" fill="white"/>
</svg>
