<svg width="16" height="16" viewBox="0 0 16 16" fill="none" xmlns="http://www.w3.org/2000/svg">
<circle cx="8" cy="8" r="8" fill="black"/>
<path d="M13.6796 8.32736C12.6125 10.2744 10.8403 11.7389 8.72713 12.4198C6.52992 13.1349 5.1372 12.6457 3.19971 11.736C5.33168 11.9282 6.80774 11.9113 8.62807 10.4883C9.63613 9.70275 10.4582 8.70417 11.0354 7.56396C11.9516 7.67706 12.8441 7.93472 13.6796 8.32736Z" fill="#D81FFA"/>
<path d="M11.0415 7.56395C10.4638 8.70385 9.64132 9.70201 8.63295 10.4871C6.81262 11.91 5.33656 11.927 3.20459 11.7349C5.27375 11.1864 6.6556 10.6646 7.87801 8.70543C8.09378 8.36091 8.28509 8.00168 8.45056 7.63038C9.30602 7.47879 10.1794 7.4564 11.0415 7.56395Z" fill="#E167FF"/>
<path d="M11.0414 7.56397C10.1796 7.45694 9.30669 7.47973 8.45166 7.63161C8.80639 6.83881 9.03971 5.99712 9.14379 5.13485C10.0415 4.92898 10.9662 4.86661 11.8834 4.95005C11.7429 5.86044 11.4588 6.74276 11.0414 7.56397Z" fill="#0057FF"/>
<path d="M8.45178 7.63159C8.05209 7.70313 7.65778 7.80202 7.27164 7.92754C5.07445 8.64261 4.23616 9.86018 3.20581 11.736C3.53195 9.6186 3.90397 8.18964 5.7243 6.76672C6.73021 5.97777 7.89785 5.42056 9.14391 5.13483C9.03981 5.9971 8.80649 6.8388 8.45178 7.63159Z" fill="#189FFF"/>
<path d="M9.14392 5.13484C7.89787 5.42056 6.73023 5.97778 5.7243 6.76673C3.90398 8.18965 3.53197 9.61861 3.20583 11.736C2.78789 9.63431 2.65019 8.16429 3.8726 6.20505C5.0452 4.32146 6.89338 2.95726 9.03885 2.39166C9.21817 3.29481 9.25362 4.22061 9.14392 5.13484Z" fill="#17EF97"/>
<path fill-rule="evenodd" clip-rule="evenodd" d="M16 8.00001C16 3.58173 12.4183 0 8.00001 0C3.58173 0 0 3.58173 0 8.00001C0 12.4183 3.58173 16 8.00001 16C12.4183 16 16 12.4183 16 8.00001ZM1 8.00001C1 4.13401 4.13401 1 8.00001 1C11.866 1 15 4.134 15 8.00001C15 11.866 11.866 15 8.00001 15C4.134 15 1 11.866 1 8.00001Z" fill="white"/>
</svg>
