<svg width="16" height="16" viewBox="0 0 16 16" fill="none" xmlns="http://www.w3.org/2000/svg">
<circle cx="8" cy="8" r="8" fill="#C2A633"/>
<path fill-rule="evenodd" clip-rule="evenodd" d="M7.67579 2.66719L7.89167 2.67289L8.09192 2.68327L8.20027 2.69103L8.3721 2.70652L8.49235 2.71974L8.61675 2.73554L8.81036 2.76458L8.94361 2.78782L9.07979 2.81444L9.21856 2.84466C9.24188 2.85001 9.2653 2.85551 9.2888 2.86119L9.43079 2.89723L9.57448 2.93744L9.71955 2.98204C9.74382 2.98986 9.76814 2.99786 9.79249 3.00606L9.93895 3.05768C10.0613 3.10273 10.1841 3.15295 10.3065 3.20893L10.4532 3.2789C11.7705 3.93421 13 5.28859 13 8.08562C13 10.5688 12.0195 11.8819 10.9186 12.5736L10.7885 12.6522C10.6581 12.7279 10.5264 12.7954 10.3949 12.8554L10.2635 12.913L10.1326 12.9659L10.0025 13.0142L9.8734 13.0581L9.74569 13.098L9.61967 13.1338L9.49565 13.166C9.47517 13.171 9.45478 13.1759 9.43449 13.1807L9.31406 13.2076L9.19641 13.2312L9.02582 13.261L8.91648 13.2773L8.75982 13.2972L8.66073 13.3075L8.52091 13.3192L8.35257 13.3288L8.24123 13.3323L8.10553 13.3333L7.99281 13.331L7.91144 13.327L4.27784 13.3264V8.57823H3V7.4151H4.27774V2.66666L7.67579 2.66719ZM7.74981 4.63698H6.31962V7.41501H8.5697V8.57813H6.31962V11.356L7.87154 11.356L8.02885 11.353L8.20631 11.3426L8.32974 11.3307L8.46396 11.3134L8.55865 11.2984L8.65696 11.2801L8.75842 11.2584C8.77557 11.2545 8.79283 11.2504 8.81019 11.2461L8.91551 11.2186L9.02281 11.1868C9.07687 11.1698 9.13151 11.1511 9.18645 11.1306L9.29666 11.0868L9.40722 11.0378C10.1996 10.6668 10.9825 9.86331 10.9802 8.12398C10.9779 6.36374 10.1994 5.48834 9.3966 5.05513L9.2845 4.9975C9.22845 4.97008 9.17245 4.94471 9.11677 4.92124L9.00587 4.8768L8.89626 4.83716C8.87812 4.83094 8.86005 4.82491 8.84207 4.81906L8.73522 4.78612C8.7176 4.78099 8.70008 4.77602 8.68267 4.77122L8.5796 4.74439L8.47963 4.7213L8.3832 4.70167L8.29077 4.68524L8.20279 4.67175L8.11972 4.66092L8.00532 4.6491L7.93651 4.64376L7.84561 4.63893L7.74981 4.63698Z" fill="white"/>
</svg>
