<svg width="39" height="39" viewBox="0 0 39 39" fill="none" xmlns="http://www.w3.org/2000/svg">
<path d="M28.1775 8.8725C27.7918 8.8725 27.4148 8.98687 27.0941 9.20113C26.7735 9.4154 26.5235 9.71995 26.3759 10.0763C26.2283 10.4326 26.1897 10.8247 26.265 11.2029C26.3402 11.5812 26.5259 11.9286 26.7986 12.2014C27.0714 12.4741 27.4188 12.6598 27.7971 12.735C28.1753 12.8103 28.5674 12.7717 28.9237 12.6241C29.2801 12.4765 29.5846 12.2265 29.7989 11.9059C30.0131 11.5852 30.1275 11.2082 30.1275 10.8225C30.1275 10.3053 29.9221 9.80934 29.5564 9.44364C29.1907 9.07795 28.6947 8.8725 28.1775 8.8725ZM35.6525 12.805C35.6209 11.4567 35.3684 10.1228 34.905 8.85625C34.4918 7.77259 33.8487 6.79133 33.02 5.98C32.2153 5.14707 31.2318 4.50804 30.1437 4.11125C28.8806 3.63376 27.5451 3.37547 26.195 3.3475C24.4725 3.25 23.92 3.25 19.5 3.25C15.08 3.25 14.5275 3.25 12.805 3.3475C11.4549 3.37547 10.1194 3.63376 8.85625 4.11125C7.77022 4.51205 6.78752 5.15054 5.98 5.98C5.14707 6.78466 4.50804 7.76821 4.11125 8.85625C3.63376 10.1194 3.37547 11.4549 3.3475 12.805C3.25 14.5275 3.25 15.08 3.25 19.5C3.25 23.92 3.25 24.4725 3.3475 26.195C3.37547 27.5451 3.63376 28.8806 4.11125 30.1437C4.50804 31.2318 5.14707 32.2153 5.98 33.02C6.78752 33.8495 7.77022 34.4879 8.85625 34.8887C10.1194 35.3662 11.4549 35.6245 12.805 35.6525C14.5275 35.75 15.08 35.75 19.5 35.75C23.92 35.75 24.4725 35.75 26.195 35.6525C27.5451 35.6245 28.8806 35.3662 30.1437 34.8887C31.2318 34.492 32.2153 33.8529 33.02 33.02C33.8524 32.2117 34.496 31.2296 34.905 30.1437C35.3684 28.8772 35.6209 27.5433 35.6525 26.195C35.6525 24.4725 35.75 23.92 35.75 19.5C35.75 15.08 35.75 14.5275 35.6525 12.805ZM32.7275 26C32.7157 27.0315 32.5288 28.0535 32.175 29.0225C31.9155 29.7297 31.4988 30.3687 30.9562 30.8913C30.4292 31.4283 29.7915 31.8442 29.0875 32.11C28.1185 32.4639 27.0965 32.6507 26.065 32.6625C24.44 32.7438 23.8388 32.76 19.565 32.76C15.2913 32.76 14.69 32.76 13.065 32.6625C11.9939 32.6826 10.9275 32.5176 9.9125 32.175C9.2394 31.8956 8.63095 31.4808 8.125 30.9562C7.58564 30.4342 7.17412 29.7947 6.9225 29.0875C6.52577 28.1046 6.30572 27.0594 6.2725 26C6.2725 24.375 6.175 23.7738 6.175 19.5C6.175 15.2262 6.175 14.625 6.2725 13C6.27978 11.9455 6.47229 10.9004 6.84125 9.9125C7.12733 9.22661 7.56643 8.61519 8.125 8.125C8.6187 7.56627 9.22884 7.12253 9.9125 6.825C10.903 6.46757 11.947 6.28075 13 6.2725C14.625 6.2725 15.2262 6.175 19.5 6.175C23.7738 6.175 24.375 6.175 26 6.2725C27.0315 6.28433 28.0535 6.47115 29.0225 6.825C29.761 7.09906 30.4237 7.54463 30.9562 8.125C31.4888 8.62417 31.9049 9.23444 32.175 9.9125C32.5362 10.902 32.7231 11.9466 32.7275 13C32.8087 14.625 32.825 15.2262 32.825 19.5C32.825 23.7738 32.8087 24.375 32.7275 26ZM19.5 11.1637C17.8519 11.167 16.2418 11.6586 14.8731 12.5766C13.5043 13.4945 12.4384 14.7976 11.8099 16.3211C11.1814 17.8446 11.0187 19.5203 11.3422 21.1363C11.6657 22.7523 12.4609 24.2361 13.6274 25.4003C14.7939 26.5646 16.2793 27.3569 17.8959 27.6772C19.5125 27.9976 21.1878 27.8315 22.7101 27.2001C24.2324 26.5687 25.5334 25.5002 26.4487 24.1297C27.364 22.7591 27.8525 21.1481 27.8525 19.5C27.8546 18.4033 27.64 17.317 27.2208 16.3036C26.8016 15.2901 26.1862 14.3696 25.4099 13.5948C24.6337 12.8201 23.7119 12.2065 22.6977 11.7893C21.6834 11.372 20.5967 11.1595 19.5 11.1637ZM19.5 24.9112C18.4298 24.9112 17.3835 24.5939 16.4937 23.9993C15.6038 23.4047 14.9102 22.5596 14.5007 21.5708C14.0911 20.582 13.9839 19.494 14.1927 18.4443C14.4015 17.3946 14.9169 16.4304 15.6737 15.6737C16.4304 14.9169 17.3946 14.4015 18.4443 14.1927C19.494 13.9839 20.582 14.0911 21.5708 14.5007C22.5596 14.9102 23.4047 15.6038 23.9993 16.4937C24.5939 17.3835 24.9112 18.4298 24.9112 19.5C24.9112 20.2106 24.7713 20.9143 24.4993 21.5708C24.2274 22.2273 23.8288 22.8239 23.3263 23.3263C22.8239 23.8288 22.2273 24.2274 21.5708 24.4993C20.9143 24.7713 20.2106 24.9112 19.5 24.9112Z" fill="white"/>
</svg>
