<svg width="34" height="28" viewBox="0 0 34 28" fill="none" xmlns="http://www.w3.org/2000/svg">
<path d="M31.4833 0.00260814C31.0439 0.021346 30.63 0.138458 30.2622 0.269623H30.2571C29.8841 0.405473 28.1111 1.08941 25.4185 2.12468C22.7259 3.16463 19.2312 4.51376 15.7619 5.85352C8.83371 8.52836 2.02299 11.161 2.02299 11.161L2.10474 11.1329C2.10474 11.1329 1.63468 11.2735 1.14419 11.5826C0.893832 11.7325 0.617929 11.9387 0.377792 12.2619C0.137654 12.5851 -0.0565008 13.0817 0.0150303 13.5923C0.132545 14.4589 0.745663 14.9789 1.18506 15.2646C1.62957 15.5551 2.05365 15.6909 2.05365 15.6909H2.06386L8.45051 17.6631C8.73663 18.5063 10.3972 23.5093 10.7957 24.6617C11.0307 25.3503 11.2606 25.7813 11.5468 26.1092C11.6847 26.2778 11.8482 26.4184 12.0424 26.5308C12.119 26.573 12.2007 26.6058 12.2825 26.6339C12.308 26.6479 12.3336 26.6526 12.3642 26.6573L12.2978 26.6432C12.3183 26.6479 12.3336 26.662 12.3489 26.6667C12.4 26.6807 12.4358 26.6854 12.5022 26.6948C13.5138 26.9758 14.3262 26.3996 14.3262 26.3996L14.3722 26.3668L18.1429 23.2189L24.4631 27.6644L24.6062 27.7207C25.9244 28.25 27.2579 27.9549 27.963 27.4349C28.6732 26.9102 28.9491 26.2404 28.9491 26.2404L28.9951 26.1326L33.8796 3.19274C34.0175 2.62592 34.0533 2.09657 33.9 1.58128C33.7467 1.06598 33.3533 0.583483 32.8781 0.325837C32.3979 0.0635061 31.9227 -0.0161298 31.4833 0.00260814ZM31.3505 2.46196C31.3453 2.53691 31.3607 2.52754 31.3249 2.67276V2.68681L26.4864 25.3878C26.4659 25.4206 26.4302 25.4909 26.3331 25.5611C26.2309 25.6361 26.1492 25.6829 25.7251 25.5283L17.9947 20.0943L13.3248 23.9965L14.3058 18.2533C14.3058 18.2533 26.4149 7.90532 26.936 7.4603C27.4572 7.01527 27.2834 6.92158 27.2834 6.92158C27.3192 6.37818 26.4966 6.76231 26.4966 6.76231L10.5709 15.808L10.5658 15.7846L2.93245 13.4283V13.4236C2.92734 13.4236 2.91712 13.419 2.91201 13.419C2.91712 13.419 2.95289 13.4049 2.95289 13.4049L2.99376 13.3862L3.03463 13.3721C3.03463 13.3721 9.85046 10.7394 16.7787 8.06459C20.2479 6.72483 23.7427 5.3757 26.4302 4.33575C29.1177 3.30048 31.1052 2.54159 31.2176 2.49943C31.3249 2.46196 31.2738 2.46196 31.3505 2.46196Z" fill="white"/>
</svg>
