<svg width="29" height="33" viewBox="0 0 29 33" fill="none" xmlns="http://www.w3.org/2000/svg">
<path d="M22.2883 5.0525C22.2883 5.0525 23.2021 5.94833 22.2883 5.0525C21.0636 3.65432 20.3887 1.85873 20.3892 0H14.8529V22.2167C14.8102 23.4189 14.3026 24.5577 13.4371 25.3932C12.5715 26.2287 11.4155 26.6957 10.2125 26.6958C7.66833 26.6958 5.55417 24.6175 5.55417 22.0375C5.55417 18.9558 8.52833 16.6446 11.5921 17.5942V11.9325C5.41083 11.1083 0 15.91 0 22.0375C0 28.0037 4.945 32.25 10.1946 32.25C15.8204 32.25 20.3892 27.6812 20.3892 22.0375V10.7679C22.6341 12.3801 25.3294 13.2452 28.0933 13.2404V7.70417C28.0933 7.70417 24.725 7.86542 22.2883 5.0525Z" fill="white"/>
</svg>
