<svg width="38" height="40" viewBox="0 0 38 40" fill="none" xmlns="http://www.w3.org/2000/svg">
<path d="M34.8334 9.66677C33.6433 10.2103 32.3847 10.5695 31.0967 10.7334C32.4555 9.87897 33.4738 8.53474 33.9626 6.95011C32.6857 7.75021 31.288 8.31393 29.8301 8.61677C28.8556 7.50439 27.5579 6.76393 26.1406 6.51152C24.7233 6.25912 23.2664 6.50904 21.9986 7.22209C20.7307 7.93514 19.7236 9.07099 19.135 10.4515C18.5465 11.832 18.41 13.3791 18.7467 14.8501C16.165 14.7126 13.6396 14.005 11.3346 12.7732C9.02962 11.5414 6.99659 9.81293 5.36758 7.7001C4.79622 8.75039 4.49599 9.93981 4.49675 11.1501C4.49472 12.2741 4.75676 13.3811 5.25953 14.3727C5.7623 15.3643 6.49019 16.2096 7.37841 16.8334C6.34605 16.8039 5.33573 16.5123 4.43341 15.9834V16.0668C4.44115 17.6416 4.96541 19.1653 5.9175 20.38C6.86959 21.5948 8.19107 22.4262 9.65841 22.7334C9.09357 22.9144 8.50713 23.0098 7.91675 23.0168C7.50807 23.0117 7.10042 22.9727 6.69758 22.9001C7.11544 24.2548 7.92407 25.4387 9.01095 26.287C10.0978 27.1354 11.4089 27.606 12.7617 27.6334C10.4773 29.5255 7.6569 30.5582 4.75008 30.5668C4.22083 30.5686 3.692 30.5352 3.16675 30.4668C6.13459 32.4839 9.5932 33.5546 13.1259 33.5501C15.5638 33.5767 17.9822 33.0918 20.24 32.1236C22.4978 31.1553 24.5497 29.7232 26.2758 27.9109C28.0019 26.0986 29.3677 23.9424 30.2933 21.5683C31.2189 19.1941 31.6858 16.6496 31.6667 14.0834C31.6667 13.8001 31.6667 13.5001 31.6667 13.2001C32.9092 12.2248 33.9807 11.0291 34.8334 9.66677Z" fill="white"/>
</svg>
